<svg width="14" height="14" viewBox="0 0 14 14" fill="none" xmlns="http://www.w3.org/2000/svg">
<path fill-rule="evenodd" clip-rule="evenodd" d="M5.0193 11.8642C5.23249 11.6226 5.60112 11.5996 5.84266 11.8128C6.15151 12.0854 6.55583 12.2502 7.00005 12.2502C7.44427 12.2502 7.84859 12.0854 8.15744 11.8128C8.39898 11.5996 8.76761 11.6226 8.9808 11.8642C9.19398 12.1057 9.171 12.4743 8.92946 12.6875C8.41565 13.141 7.73935 13.4168 7.00005 13.4168C6.26075 13.4168 5.58445 13.141 5.07064 12.6875C4.8291 12.4743 4.80612 12.1057 5.0193 11.8642Z" fill="white"/>
<path fill-rule="evenodd" clip-rule="evenodd" d="M4.1127 1.77948C4.87847 1.0137 5.91708 0.583496 7.00005 0.583496C8.08302 0.583496 9.12163 1.0137 9.8874 1.77948C10.6532 2.54525 11.0834 3.58386 11.0834 4.66683C11.0834 6.36589 11.5104 7.49241 11.958 8.2118L11.965 8.22294C12.1734 8.55788 12.3381 8.82266 12.4492 9.01539C12.5049 9.11196 12.5556 9.20499 12.5931 9.28768C12.6119 9.32895 12.6328 9.37955 12.6492 9.43456C12.6628 9.4802 12.6887 9.57776 12.679 9.69649C12.6725 9.77629 12.6562 9.91264 12.5779 10.0535C12.4997 10.1944 12.3925 10.2802 12.3282 10.3279C12.1822 10.4362 12.0145 10.461 11.9586 10.4693L11.956 10.4696C11.87 10.4824 11.7724 10.4887 11.674 10.4925C11.4784 10.5002 11.2077 10.5002 10.871 10.5002H3.12914C2.79242 10.5002 2.52167 10.5002 2.32611 10.4925C2.22767 10.4887 2.13009 10.4824 2.0441 10.4696L2.04152 10.4693C1.98556 10.461 1.81789 10.4362 1.67189 10.3279C1.60758 10.2802 1.50041 10.1944 1.42215 10.0535C1.3439 9.91265 1.32762 9.77629 1.3211 9.69649C1.31139 9.57776 1.33729 9.4802 1.35088 9.43456C1.36727 9.37955 1.38824 9.32895 1.40698 9.28768C1.44452 9.20499 1.49523 9.11196 1.5509 9.01539C1.66198 8.82265 1.82676 8.55784 2.0352 8.22286L2.04208 8.2118C2.48971 7.49241 2.91672 6.36589 2.91672 4.66683C2.91672 3.58386 3.34692 2.54525 4.1127 1.77948Z" fill="white"/>
</svg>
