<svg width="12" height="12" viewBox="0 0 12 12" fill="none" xmlns="http://www.w3.org/2000/svg">
<path fill-rule="evenodd" clip-rule="evenodd" d="M8.5 1C8.5 0.723858 8.27614 0.5 8 0.5C7.72386 0.5 7.5 0.723858 7.5 1V1.5H4.5V1C4.5 0.723858 4.27614 0.5 4 0.5C3.72386 0.5 3.5 0.723858 3.5 1V1.50081C3.26227 1.50245 3.05449 1.50736 2.87409 1.5221C2.59304 1.54506 2.33469 1.59434 2.09202 1.71799C1.7157 1.90973 1.40973 2.2157 1.21799 2.59202C1.09434 2.83469 1.04506 3.09304 1.0221 3.37409C0.999989 3.64468 0.999994 3.97686 1 4.37934V8.62066C0.999994 9.02314 0.999989 9.35532 1.0221 9.62591C1.04506 9.90696 1.09434 10.1653 1.21799 10.408C1.40973 10.7843 1.7157 11.0903 2.09202 11.282C2.33469 11.4057 2.59304 11.4549 2.87409 11.4779C3.14468 11.5 3.47686 11.5 3.87934 11.5H8.12066C8.52314 11.5 8.85532 11.5 9.12591 11.4779C9.40696 11.4549 9.66531 11.4057 9.90798 11.282C10.2843 11.0903 10.5903 10.7843 10.782 10.408C10.9057 10.1653 10.9549 9.90696 10.9779 9.62591C11 9.35532 11 9.02314 11 8.62066V4.37934C11 3.97686 11 3.64468 10.9779 3.37409C10.9549 3.09304 10.9057 2.83469 10.782 2.59202C10.5903 2.2157 10.2843 1.90973 9.90798 1.71799C9.66531 1.59434 9.40696 1.54506 9.12591 1.5221C8.94551 1.50736 8.73773 1.50245 8.5 1.50081V1ZM3.5 3V2.50088C3.27724 2.50245 3.10232 2.50678 2.95552 2.51878C2.73631 2.53669 2.62421 2.56915 2.54601 2.60899C2.35785 2.70487 2.20487 2.85785 2.10899 3.04601C2.06915 3.12421 2.03669 3.23631 2.01878 3.45552C2.00039 3.68056 2 3.97171 2 4.4V4.5H10V4.4C10 3.97171 9.99961 3.68056 9.98122 3.45552C9.96331 3.23631 9.93085 3.12421 9.89101 3.04601C9.79513 2.85785 9.64215 2.70487 9.45399 2.60899C9.37579 2.56915 9.26369 2.53669 9.04448 2.51878C8.89769 2.50678 8.72276 2.50245 8.5 2.50088V3C8.5 3.27614 8.27614 3.5 8 3.5C7.72386 3.5 7.5 3.27614 7.5 3V2.5H4.5V3C4.5 3.27614 4.27614 3.5 4 3.5C3.72386 3.5 3.5 3.27614 3.5 3ZM6 6C6.27614 6 6.5 6.22386 6.5 6.5V7.5H7.5C7.77614 7.5 8 7.72386 8 8C8 8.27614 7.77614 8.5 7.5 8.5H6.5V9.5C6.5 9.77614 6.27614 10 6 10C5.72386 10 5.5 9.77614 5.5 9.5V8.5H4.5C4.22386 8.5 4 8.27614 4 8C4 7.72386 4.22386 7.5 4.5 7.5H5.5V6.5C5.5 6.22386 5.72386 6 6 6Z" fill="white"/>
</svg>
