<svg width="12" height="12" viewBox="0 0 12 12" fill="none" xmlns="http://www.w3.org/2000/svg">
<path fill-rule="evenodd" clip-rule="evenodd" d="M2.58073 3.5H6.41927C6.68284 3.49999 6.91023 3.49998 7.09751 3.51529C7.29519 3.53144 7.4918 3.56709 7.68099 3.66349C7.96323 3.8073 8.1927 4.03677 8.33651 4.31902C8.43291 4.50821 8.46856 4.70481 8.48471 4.90249C8.50002 5.08977 8.50001 5.31714 8.5 5.58071V9.41927C8.50001 9.68284 8.50002 9.91023 8.48471 10.0975C8.46856 10.2952 8.43291 10.4918 8.33651 10.681C8.1927 10.9632 7.96323 11.1927 7.68099 11.3365C7.4918 11.4329 7.29519 11.4686 7.09751 11.4847C6.91024 11.5 6.68288 11.5 6.41932 11.5H2.58074C2.31719 11.5 2.08976 11.5 1.90249 11.4847C1.70481 11.4686 1.5082 11.4329 1.31901 11.3365C1.03677 11.1927 0.8073 10.9632 0.66349 10.681C0.567093 10.4918 0.531435 10.2952 0.515284 10.0975C0.499982 9.91023 0.499991 9.68284 0.5 9.41926V5.58074C0.499991 5.31716 0.499982 5.08978 0.515284 4.90249C0.531435 4.70481 0.567093 4.50821 0.66349 4.31902C0.8073 4.03677 1.03677 3.8073 1.31901 3.66349C1.5082 3.56709 1.70481 3.53144 1.90249 3.51529C2.08977 3.49998 2.31716 3.49999 2.58073 3.5Z" fill="white"/>
<path d="M9.41927 0.5H5.58073C5.31717 0.499992 5.08977 0.499985 4.90249 0.515286C4.70482 0.531437 4.50821 0.567095 4.31902 0.663492C4.03677 0.807302 3.8073 1.03677 3.66349 1.31902C3.5671 1.50821 3.53144 1.70481 3.51529 1.90249C3.50157 2.07038 3.50016 2.27049 3.50002 2.50001L6.44043 2.50001C6.68475 2.49995 6.94966 2.49989 7.17895 2.51862C7.43846 2.53982 7.78132 2.5923 8.13498 2.7725C8.60538 3.01218 8.98783 3.39463 9.22752 3.86504C9.40771 4.21869 9.46019 4.56155 9.48139 4.82107C9.50013 5.05036 9.50006 5.31526 9.50001 5.55959L9.5 8.49999C9.72952 8.49985 9.92963 8.49843 10.0975 8.48472C10.2952 8.46857 10.4918 8.43291 10.681 8.33651C10.9632 8.1927 11.1927 7.96323 11.3365 7.68099C11.4329 7.4918 11.4686 7.29519 11.4847 7.09752C11.5 6.91024 11.5 6.68288 11.5 6.41932V2.58074C11.5 2.31719 11.5 2.08976 11.4847 1.90249C11.4686 1.70481 11.4329 1.50821 11.3365 1.31902C11.1927 1.03677 10.9632 0.807302 10.681 0.663492C10.4918 0.567095 10.2952 0.531437 10.0975 0.515286C9.91024 0.499985 9.68284 0.499992 9.41927 0.5Z" fill="white"/>
</svg>
