<svg width="15" height="15" viewBox="0 0 15 15" fill="none" xmlns="http://www.w3.org/2000/svg">
<path fill-rule="evenodd" clip-rule="evenodd" d="M6.50008 7.5C6.50008 6.85567 7.02242 6.33334 7.66675 6.33334C8.31108 6.33334 8.83341 6.85567 8.83341 7.5C8.83341 8.14433 8.31108 8.66667 7.66675 8.66667C7.02242 8.66667 6.50008 8.14433 6.50008 7.5Z" fill="white"/>
<path fill-rule="evenodd" clip-rule="evenodd" d="M10.5834 7.5C10.5834 6.85567 11.1057 6.33334 11.7501 6.33334C12.3944 6.33334 12.9167 6.85567 12.9167 7.5C12.9167 8.14433 12.3944 8.66667 11.7501 8.66667C11.1057 8.66667 10.5834 8.14433 10.5834 7.5Z" fill="white"/>
<path fill-rule="evenodd" clip-rule="evenodd" d="M2.41675 7.5C2.41675 6.85567 2.93908 6.33334 3.58341 6.33334C4.22775 6.33334 4.75008 6.85567 4.75008 7.5C4.75008 8.14433 4.22775 8.66667 3.58341 8.66667C2.93908 8.66667 2.41675 8.14433 2.41675 7.5Z" fill="white"/>
</svg>
