<svg width="16" height="17" viewBox="0 0 16 17" fill="none" xmlns="http://www.w3.org/2000/svg">
<path d="M5.33337 9.83325C5.33337 9.83325 6.33337 11.1666 8.00004 11.1666C9.66671 11.1666 10.6667 9.83325 10.6667 9.83325M10 6.49992H10.0067M6.00004 6.49992H6.00671M14.6667 8.49992C14.6667 12.1818 11.6819 15.1666 8.00004 15.1666C4.31814 15.1666 1.33337 12.1818 1.33337 8.49992C1.33337 4.81802 4.31814 1.83325 8.00004 1.83325C11.6819 1.83325 14.6667 4.81802 14.6667 8.49992ZM10.3334 6.49992C10.3334 6.68401 10.1841 6.83325 10 6.83325C9.81595 6.83325 9.66671 6.68401 9.66671 6.49992C9.66671 6.31582 9.81595 6.16659 10 6.16659C10.1841 6.16659 10.3334 6.31582 10.3334 6.49992ZM6.33337 6.49992C6.33337 6.68401 6.18414 6.83325 6.00004 6.83325C5.81595 6.83325 5.66671 6.68401 5.66671 6.49992C5.66671 6.31582 5.81595 6.16659 6.00004 6.16659C6.18414 6.16659 6.33337 6.31582 6.33337 6.49992Z" stroke="white" stroke-linecap="round" stroke-linejoin="round"/>
</svg>
