<svg width="12" height="12" viewBox="0 0 12 12" fill="none" xmlns="http://www.w3.org/2000/svg">
<path fill-rule="evenodd" clip-rule="evenodd" d="M0.5 3.08084C0.499992 2.81727 0.499985 2.58987 0.515286 2.40259C0.531437 2.20492 0.567095 2.00831 0.663492 1.81912C0.807302 1.53688 1.03677 1.30741 1.31902 1.1636C1.50821 1.0672 1.70481 1.03154 1.90249 1.01539C2.08977 1.00009 2.31715 1.0001 2.58073 1.00011L4.57333 1.00005C4.87011 0.999661 5.1311 0.999317 5.37107 1.08209C5.58126 1.15459 5.7727 1.27291 5.93155 1.42848C6.1129 1.6061 6.22931 1.83969 6.36168 2.10532L6.80896 3H8.62065C9.02314 2.99999 9.35532 2.99999 9.62591 3.0221C9.90696 3.04506 10.1653 3.09434 10.408 3.21799C10.7843 3.40973 11.0903 3.7157 11.282 4.09202C11.4057 4.33469 11.4549 4.59304 11.4779 4.87409C11.5 5.14468 11.5 5.47686 11.5 5.87934V8.12066C11.5 8.52314 11.5 8.85532 11.4779 9.12591C11.4549 9.40696 11.4057 9.66531 11.282 9.90798C11.0903 10.2843 10.7843 10.5903 10.408 10.782C10.1653 10.9057 9.90696 10.9549 9.62591 10.9779C9.35532 11 9.02313 11 8.62065 11H3.37936C2.97688 11 2.64469 11 2.37409 10.9779C2.09304 10.9549 1.83469 10.9057 1.59202 10.782C1.2157 10.5903 0.909735 10.2843 0.717988 9.90798C0.594342 9.66531 0.54506 9.40696 0.522098 9.12591C0.499989 8.85532 0.499994 8.52314 0.5 8.12066V3.08084ZM4.51115 2.00011C4.90635 2.00011 4.98469 2.00663 5.045 2.02744C5.11507 2.0516 5.17888 2.09104 5.23183 2.1429C5.27741 2.18754 5.31828 2.25469 5.49502 2.60817L5.69093 3L1.50004 3C1.50026 2.76751 1.50179 2.60858 1.51196 2.48403C1.52306 2.34819 1.5419 2.29783 1.5545 2.27311C1.60243 2.17903 1.67893 2.10254 1.77301 2.0546C1.79773 2.04201 1.84809 2.02317 1.98392 2.01207C2.12559 2.0005 2.31172 2.00011 2.6 2.00011H4.51115Z" fill="white"/>
</svg>
