<svg width="56" height="56" viewBox="0 0 56 56" fill="none" xmlns="http://www.w3.org/2000/svg">
<path d="M0 28C0 16.7643 0 11.1465 2.69649 7.11088C3.86382 5.36383 5.36383 3.86382 7.11088 2.69649C11.1465 0 16.7643 0 28 0C39.2357 0 44.8535 0 48.8891 2.69649C50.6362 3.86382 52.1362 5.36383 53.3035 7.11088C56 11.1465 56 16.7643 56 28C56 39.2357 56 44.8535 53.3035 48.8891C52.1362 50.6362 50.6362 52.1362 48.8891 53.3035C44.8535 56 39.2357 56 28 56C16.7643 56 11.1465 56 7.11088 53.3035C5.36383 52.1362 3.86382 50.6362 2.69649 48.8891C0 44.8535 0 39.2357 0 28Z" fill="white"/>
<path opacity="0.5" d="M29.9187 39.4769C29.9527 35.9975 29.0706 33.1681 27.9485 33.1571C26.8264 33.1461 25.8892 35.9578 25.8552 39.4372C25.8212 42.9165 26.7033 45.7461 27.8253 45.757C28.9475 45.768 29.8847 42.9563 29.9187 39.4769Z" fill="#724BF9"/>
<path d="M23.4108 38.689C25.3207 35.7804 26.1085 32.9233 25.1705 32.3073C24.2324 31.6914 21.9238 33.55 20.014 36.4585C18.1041 39.3671 17.3163 42.2242 18.2543 42.8402C19.1924 43.4561 21.501 41.5976 23.4108 38.689Z" fill="#724BF9"/>
<path d="M18.3558 34.5138C21.535 33.0997 23.7425 31.1221 23.2864 30.0968C22.8304 29.0714 19.8835 29.3867 16.7042 30.8009C13.525 32.215 11.3175 34.1925 11.7735 35.2179C12.2296 36.2432 15.1766 35.928 18.3558 34.5138Z" fill="#724BF9"/>
<path d="M22.905 27.222C23.0757 26.1129 20.4262 24.7847 16.9872 24.2554C13.5481 23.726 10.6219 24.1961 10.4512 25.3052C10.2805 26.4143 12.93 27.7424 16.369 28.2718C19.808 28.8011 22.7343 28.3311 22.905 27.222Z" fill="#724BF9"/>
<path d="M24.1395 24.5807C24.8827 23.7399 23.3715 21.1903 20.7643 18.8861C18.1571 16.5818 15.4411 15.3955 14.6979 16.2363C13.9548 17.0772 15.466 19.6268 18.0732 21.931C20.6804 24.2353 23.3964 25.4216 24.1395 24.5807Z" fill="#724BF9"/>
<path d="M26.5983 23.0356C27.6781 22.7301 27.7853 19.7682 26.838 16.4201C25.8906 13.072 24.2472 10.6056 23.1674 10.9111C22.0877 11.2167 21.9804 14.1785 22.9278 17.5266C23.8752 20.8746 25.5185 23.3411 26.5983 23.0356Z" fill="#724BF9"/>
<path d="M33.2751 17.6296C34.2884 14.3008 34.2395 11.3374 33.166 11.0107C32.0925 10.6839 30.4008 13.1174 29.3875 16.4462C28.3743 19.7749 28.4231 22.7383 29.4967 23.0651C30.5702 23.3918 32.2619 20.9583 33.2751 17.6296Z" fill="#724BF9"/>
<path d="M38.0469 22.1286C40.6986 19.8758 42.2594 17.3562 41.5328 16.501C40.8062 15.6458 38.0676 16.7789 35.4158 19.0316C32.764 21.2845 31.2034 23.8041 31.9299 24.6593C32.6565 25.5145 35.3951 24.3815 38.0469 22.1286Z" fill="#724BF9"/>
<path opacity="0.5" d="M39.6237 28.4938C43.0726 28.0324 45.7477 26.7567 45.5989 25.6444C45.4502 24.5322 42.5337 24.0046 39.0848 24.466C35.6361 24.9274 32.9609 26.2031 33.1097 27.3153C33.2585 28.4276 36.1749 28.9552 39.6237 28.4938Z" fill="#724BF9"/>
<path opacity="0.5" d="M44.0729 35.5353C44.5491 34.5192 42.381 32.4985 39.2303 31.0219C36.0796 29.5453 33.1394 29.1721 32.6632 30.1882C32.187 31.2043 34.3551 33.225 37.5059 34.7016C40.6565 36.1781 43.5967 36.5514 44.0729 35.5353Z" fill="#724BF9"/>
<path opacity="0.5" d="M37.4458 43.0346C38.3958 42.4373 37.6644 39.5651 35.8123 36.6194C33.9602 33.6738 31.6887 31.7701 30.7387 32.3674C29.7887 32.9647 30.52 35.8369 32.3721 38.7825C34.2242 41.7282 36.4958 43.6319 37.4458 43.0346Z" fill="#724BF9"/>
</svg>
