<svg width="62" height="61" viewBox="0 0 62 61" fill="none" xmlns="http://www.w3.org/2000/svg">
<path d="M0.666748 24C0.666748 12.6863 0.666748 7.02944 4.18147 3.51472C7.69619 0 13.353 0 24.6667 0H37.6667C48.9805 0 54.6373 0 58.152 3.51472C61.6667 7.02944 61.6667 12.6863 61.6667 24V37C61.6667 48.3137 61.6667 53.9706 58.152 57.4853C54.6373 61 48.9805 61 37.6667 61H24.6667C13.353 61 7.69619 61 4.18147 57.4853C0.666748 53.9706 0.666748 48.3137 0.666748 37V24Z" fill="white"/>
<path opacity="0.5" d="M34.3283 44.9281C34.3696 40.7059 33.2992 37.2725 31.9376 37.2592C30.5759 37.2459 29.4386 40.6578 29.3974 44.8799C29.3561 49.102 30.4265 52.5356 31.7881 52.5488C33.1498 52.5622 34.2871 49.1503 34.3283 44.9281Z" fill="#724BF9"/>
<path d="M26.4312 43.9692C28.7488 40.4397 29.7048 36.9726 28.5665 36.2252C27.4282 35.4778 24.6267 37.7331 22.3093 41.2626C19.9917 44.792 19.0357 48.2591 20.1739 49.0066C21.3123 49.754 24.1137 47.4987 26.4312 43.9692Z" fill="#724BF9"/>
<path d="M20.2969 38.9048C24.1548 37.1888 26.8335 34.789 26.2801 33.5448C25.7267 32.3006 22.1507 32.6832 18.2927 34.3992C14.4348 36.1152 11.756 38.515 12.3095 39.7592C12.8629 41.0034 16.439 40.6208 20.2969 38.9048Z" fill="#724BF9"/>
<path d="M25.8172 30.0572C26.0244 28.7113 22.8092 27.0996 18.6361 26.4572C14.4629 25.8149 10.9119 26.3853 10.7048 27.7311C10.4976 29.077 13.7127 30.6887 17.8859 31.331C22.0591 31.9734 25.6101 31.403 25.8172 30.0572Z" fill="#724BF9"/>
<path d="M27.3154 26.8503C28.2172 25.83 26.3835 22.7362 23.2197 19.94C20.0559 17.1439 16.7601 15.7043 15.8583 16.7246C14.9566 17.745 16.7903 20.8389 19.9541 23.635C23.1179 26.4312 26.4137 27.8707 27.3154 26.8503Z" fill="#724BF9"/>
<path d="M30.2992 24.977C31.6094 24.6063 31.7396 21.0121 30.59 16.9493C29.4403 12.8865 27.4462 9.89354 26.1359 10.2643C24.8256 10.6351 24.6954 14.2292 25.8451 18.292C26.9947 22.3547 28.9889 25.3478 30.2992 24.977Z" fill="#724BF9"/>
<path d="M38.4017 18.417C39.6313 14.3776 39.5721 10.7816 38.2694 10.3851C36.9666 9.98855 34.9138 12.9416 33.6843 16.981C32.4548 21.0203 32.514 24.6163 33.8167 25.0128C35.1195 25.4093 37.1723 22.4563 38.4017 18.417Z" fill="#724BF9"/>
<path d="M44.1912 23.8767C47.4091 21.1429 49.303 18.0855 48.4213 17.0478C47.5397 16.01 44.2164 17.3849 40.9986 20.1186C37.7807 22.8524 35.8869 25.9098 36.7685 26.9476C37.6501 27.9854 40.9734 26.6105 44.1912 23.8767Z" fill="#724BF9"/>
<path opacity="0.5" d="M46.1057 31.5997C50.2908 31.0398 53.537 29.4918 53.3564 28.1421C53.1759 26.7924 49.6368 26.1522 45.4517 26.712C41.2667 27.2719 38.0204 28.8199 38.201 30.1697C38.3816 31.5193 41.9206 32.1596 46.1057 31.5997Z" fill="#724BF9"/>
<path opacity="0.5" d="M51.5045 40.1451C52.0824 38.9121 49.4515 36.46 45.6281 34.6682C41.8049 32.8764 38.237 32.4235 37.6592 33.6565C37.0813 34.8896 39.7122 37.3417 43.5356 39.1335C47.3588 40.9252 50.9267 41.3782 51.5045 40.1451Z" fill="#724BF9"/>
<path opacity="0.5" d="M43.4623 49.2435C44.615 48.5187 43.7276 45.0334 41.4801 41.4589C39.2327 37.8844 36.4762 35.5744 35.3234 36.2992C34.1706 37.024 35.0581 40.5093 37.3055 44.0838C39.553 47.6582 42.3095 49.9684 43.4623 49.2435Z" fill="#724BF9"/>
</svg>
