<svg width="49" height="43" viewBox="0 0 49 43" fill="none" xmlns="http://www.w3.org/2000/svg">
<path d="M17.5856 24.2766C18.4333 22.7513 20.6262 22.749 21.477 24.2726L23.6034 28.0804C24.0956 28.9619 24.096 30.0364 23.6066 30.9171L20.5266 36.4656C19.3852 38.5219 16.7894 39.2582 14.7384 38.1074C12.7 36.9638 11.9696 34.3876 13.1045 32.3443L17.5856 24.2766Z" fill="white"/>
<path d="M4.31813 19.446C4.41485 17.0974 6.40199 15.2748 8.75012 15.3809L14.5434 15.6427C15.8931 15.7028 17.1131 16.4583 17.7728 17.6396C18.4308 18.8179 18.4339 20.2529 17.7771 21.4334C16.8302 23.1383 15.0001 24.1603 13.0519 24.0722L8.36677 23.8603C6.03195 23.7547 4.22196 21.7812 4.31813 19.446Z" fill="white"/>
<path d="M31.3673 24.2333C29.624 24.3116 28.4719 22.4457 29.3228 20.9222L31.4494 17.1146C31.9417 16.2331 32.8563 15.6692 33.8628 15.6239L40.2023 15.3358C42.5517 15.2291 44.5401 17.0529 44.6363 19.4027C44.7318 21.7381 42.9215 23.7112 40.5866 23.8167L31.3673 24.2333Z" fill="white"/>
<path d="M34.214 38.0647C32.1637 39.2142 29.5697 38.4783 28.4283 36.4235L25.6125 31.3538C24.9558 30.1732 24.959 28.7382 25.6187 27.557C26.2768 26.3787 27.4969 25.6233 28.8465 25.5633C30.7947 25.4752 32.6248 26.4973 33.5716 28.2022L35.8487 32.3023C36.9834 34.3455 36.2526 36.9217 34.214 38.0647Z" fill="white"/>
<path d="M24.5213 12.037C25.4398 13.5207 24.3726 15.4365 22.6275 15.4365H18.2662C17.2566 15.4365 16.3183 14.9129 15.788 14.0563L12.4453 8.66195C11.2065 6.66283 11.8292 4.03753 13.8339 2.80778C15.8262 1.58564 18.4316 2.20401 19.6622 4.19107L24.5213 12.037Z" fill="white"/>
<path d="M35.2081 2.80885C37.2114 4.03834 37.8339 6.66192 36.5964 8.66032L33.5432 13.5908C32.8327 14.7398 31.5783 15.4367 30.2253 15.4367C28.8757 15.4367 27.6213 14.7398 26.9108 13.5908C25.884 11.9329 25.884 9.83666 26.9107 8.17873L29.38 4.19147C30.6106 2.20445 33.2161 1.58633 35.2081 2.80885Z" fill="white"/>
</svg>
