<svg width="40" height="40" viewBox="0 0 40 40" fill="none" xmlns="http://www.w3.org/2000/svg">
<g opacity="0.4">
<path d="M14.6902 4.9999C13.144 4.99885 11.9784 4.99806 10.9164 5.36437C9.98222 5.68659 9.13137 6.21244 8.4254 6.90389C7.62282 7.68996 7.10225 8.73287 6.41171 10.1163C5.56434 11.8111 4.19263 14.5597 3.27148 16.4059C2.95323 17.0438 2.7941 17.3627 2.8326 17.6223C2.86623 17.8489 2.9917 18.0517 3.17947 18.183C3.39453 18.3333 3.75134 18.3333 4.46498 18.3333H9.80327C11.5766 18.3333 13.1977 19.3352 13.9907 20.9213C14.2191 21.3781 14.686 21.6667 15.1967 21.6667H24.8033C25.314 21.6667 25.7809 21.3781 26.0093 20.9213C26.8023 19.3352 28.4234 18.3333 30.1967 18.3333H35.5351C36.2487 18.3333 36.6055 18.3333 36.8206 18.183C37.0084 18.0517 37.1338 17.8489 37.1674 17.6223C37.206 17.3627 37.0468 17.0438 36.7286 16.4059C35.8074 14.5597 34.4357 11.8111 33.5884 10.1163C32.8978 8.73288 32.3772 7.68996 31.5747 6.90389C30.8687 6.21244 30.0178 5.68659 29.0837 5.36437C28.0217 4.99806 26.856 4.99885 25.3099 4.9999H14.6902Z" fill="url(#paint0_linear_156_19397)"/>
<path d="M38.3334 24.3327C38.3335 23.3998 38.3335 22.9333 38.1519 22.5768C37.9922 22.2632 37.7371 22.0081 37.4235 21.8483C37.067 21.6667 36.6004 21.6667 35.6673 21.6667H30.1967C29.686 21.6667 29.2191 21.9552 28.9907 22.412C28.1977 23.9981 26.5766 25 24.8033 25H15.1967C13.4234 25 11.8023 23.9981 11.0093 22.412C10.7809 21.9552 10.314 21.6667 9.80327 21.6667H4.33266C3.39959 21.6667 2.93305 21.6667 2.57651 21.8483C2.26296 22.0081 2.00789 22.2632 1.84814 22.5768C1.6665 22.9333 1.66654 23.3998 1.66663 24.3327C1.66666 24.6892 1.66669 25.0457 1.66669 25.4022C1.66667 26.7438 1.66665 27.8511 1.74035 28.7531C1.81689 29.6899 1.98117 30.5511 2.39332 31.3599C3.03247 32.6144 4.05234 33.6342 5.30676 34.2734C6.11565 34.6855 6.97682 34.8498 7.91365 34.9264C8.81563 35 9.92289 35 11.2645 35H28.7356C30.0772 35 31.1844 35 32.0864 34.9264C33.0232 34.8498 33.8844 34.6855 34.6933 34.2734C35.9477 33.6342 36.9676 32.6144 37.6067 31.3599C38.0189 30.5511 38.1832 29.6899 38.2597 28.7531C38.3334 27.8511 38.3334 26.7438 38.3334 25.4022C38.3334 25.0457 38.3334 24.6892 38.3334 24.3327Z" fill="url(#paint1_linear_156_19397)"/>
</g>
<defs>
<linearGradient id="paint0_linear_156_19397" x1="20" y1="4.99979" x2="20" y2="35" gradientUnits="userSpaceOnUse">
<stop stop-color="white"/>
<stop offset="1" stop-color="white" stop-opacity="0.45"/>
</linearGradient>
<linearGradient id="paint1_linear_156_19397" x1="20" y1="4.99979" x2="20" y2="35" gradientUnits="userSpaceOnUse">
<stop stop-color="white"/>
<stop offset="1" stop-color="white" stop-opacity="0.45"/>
</linearGradient>
</defs>
</svg>
