<svg width="16" height="16" viewBox="0 0 16 16" fill="none" xmlns="http://www.w3.org/2000/svg">
<g opacity="0.5">
<path d="M14.5 3C14.5 2.72386 14.2761 2.5 14 2.5C13.7239 2.5 13.5 2.72386 13.5 3H14.5ZM2.64645 9.64645C2.45118 9.84171 2.45118 10.1583 2.64645 10.3536L5.82843 13.5355C6.02369 13.7308 6.34027 13.7308 6.53553 13.5355C6.7308 13.3403 6.7308 13.0237 6.53553 12.8284L3.70711 10L6.53553 7.17157C6.7308 6.97631 6.7308 6.65973 6.53553 6.46447C6.34027 6.2692 6.02369 6.2692 5.82843 6.46447L2.64645 9.64645ZM13.5 3V6H14.5V3H13.5ZM10 9.5H3V10.5H10V9.5ZM13.5 6C13.5 7.933 11.933 9.5 10 9.5V10.5C12.4853 10.5 14.5 8.48528 14.5 6H13.5Z" fill="white"/>
</g>
</svg>
