<svg width="14" height="14" viewBox="0 0 14 14" fill="none" xmlns="http://www.w3.org/2000/svg">
<path d="M6.41663 2.09984C6.41663 1.77314 6.41663 1.60979 6.35305 1.48501C6.29712 1.37525 6.20788 1.28601 6.09812 1.23008C5.97334 1.1665 5.80999 1.1665 5.48329 1.1665H3.59414C3.28665 1.16649 3.02136 1.16649 2.80286 1.18434C2.57224 1.20318 2.34287 1.24478 2.12214 1.35724C1.79286 1.52502 1.52514 1.79274 1.35737 2.12202C1.2449 2.34274 1.2033 2.57212 1.18446 2.80274C1.16661 3.02123 1.16662 3.28651 1.16663 3.594C1.16663 3.77768 1.16663 3.86952 1.18713 3.9448C1.24145 4.14423 1.39724 4.30002 1.59666 4.35433C1.67194 4.37484 1.76378 4.37484 1.94747 4.37484H5.48329C5.80999 4.37484 5.97334 4.37484 6.09812 4.31126C6.20788 4.25533 6.29712 4.16609 6.35305 4.05633C6.41663 3.93155 6.41663 3.7682 6.41663 3.4415V2.09984Z" fill="white"/>
<path d="M2.09996 5.5415C1.77326 5.5415 1.60991 5.5415 1.48513 5.60508C1.37537 5.66101 1.28613 5.75025 1.23021 5.86001C1.16663 5.98479 1.16663 6.14814 1.16663 6.47484L1.16663 7.52484C1.16663 7.85153 1.16663 8.01488 1.23021 8.13967C1.28613 8.24943 1.37537 8.33866 1.48513 8.39459C1.60991 8.45817 1.77326 8.45817 2.09996 8.45817H5.48329C5.80999 8.45817 5.97334 8.45817 6.09812 8.39459C6.20788 8.33866 6.29712 8.24943 6.35305 8.13966C6.41663 8.01488 6.41663 7.85153 6.41663 7.52484L6.41663 6.47484C6.41663 6.14814 6.41663 5.98479 6.35305 5.86001C6.29712 5.75025 6.20788 5.66101 6.09812 5.60508C5.97334 5.5415 5.80999 5.5415 5.48329 5.5415H2.09996Z" fill="white"/>
<path d="M1.94745 9.62484C1.76378 9.62484 1.67195 9.62484 1.59668 9.64534C1.39724 9.69965 1.24144 9.85545 1.18713 10.0549C1.16663 10.1302 1.16663 10.222 1.16663 10.4057C1.16662 10.7132 1.16661 10.9784 1.18446 11.1969C1.2033 11.4276 1.2449 11.6569 1.35737 11.8777C1.52514 12.2069 1.79286 12.4747 2.12214 12.6424C2.34287 12.7549 2.57224 12.7965 2.80286 12.8153C3.02136 12.8332 3.28663 12.8332 3.59413 12.8332H5.48329C5.80999 12.8332 5.97334 12.8332 6.09812 12.7696C6.20788 12.7137 6.29712 12.6244 6.35305 12.5147C6.41663 12.3899 6.41663 12.2265 6.41663 11.8998V10.5582C6.41663 10.2315 6.41663 10.0681 6.35305 9.94334C6.29712 9.83358 6.20788 9.74434 6.09812 9.68842C5.97334 9.62484 5.80999 9.62484 5.48329 9.62484H1.94745Z" fill="white"/>
<path d="M7.58329 11.8998C7.58329 12.2265 7.58329 12.3899 7.64687 12.5147C7.7028 12.6244 7.79204 12.7137 7.9018 12.7696C8.02658 12.8332 8.18993 12.8332 8.51663 12.8332H10.4058C10.7133 12.8332 10.9786 12.8332 11.1971 12.8153C11.4277 12.7965 11.6571 12.7549 11.8778 12.6424C12.2071 12.4747 12.4748 12.2069 12.6426 11.8777C12.755 11.6569 12.7966 11.4276 12.8155 11.1969C12.8333 10.9784 12.8333 10.7132 12.8333 10.4057C12.8333 10.222 12.8333 10.1302 12.8128 10.0549C12.7585 9.85545 12.6027 9.69966 12.4033 9.64534C12.328 9.62484 12.2361 9.62484 12.0525 9.62484H8.51663C8.18993 9.62484 8.02658 9.62484 7.9018 9.68842C7.79204 9.74434 7.7028 9.83358 7.64687 9.94334C7.58329 10.0681 7.58329 10.2315 7.58329 10.5582V11.8998Z" fill="white"/>
<path d="M11.9 8.45817C12.2267 8.45817 12.39 8.45817 12.5148 8.39459C12.6245 8.33866 12.7138 8.24943 12.7697 8.13967C12.8333 8.01488 12.8333 7.85153 12.8333 7.52484V6.47484C12.8333 6.14814 12.8333 5.98479 12.7697 5.86001C12.7138 5.75025 12.6245 5.66101 12.5148 5.60508C12.39 5.5415 12.2267 5.5415 11.9 5.5415H8.51663C8.18993 5.5415 8.02658 5.5415 7.9018 5.60508C7.79204 5.66101 7.7028 5.75025 7.64687 5.86001C7.58329 5.98479 7.58329 6.14814 7.58329 6.47484L7.58329 7.52484C7.58329 7.85153 7.58329 8.01488 7.64687 8.13967C7.7028 8.24943 7.79204 8.33866 7.9018 8.39459C8.02658 8.45817 8.18993 8.45817 8.51663 8.45817H11.9Z" fill="white"/>
<path d="M12.8333 3.59401C12.8333 3.77768 12.8333 3.86952 12.8128 3.94479C12.7585 4.14422 12.6027 4.30002 12.4033 4.35434C12.328 4.37484 12.2361 4.37484 12.0525 4.37484H8.51663C8.18993 4.37484 8.02658 4.37484 7.9018 4.31126C7.79204 4.25533 7.7028 4.16609 7.64687 4.05633C7.58329 3.93155 7.58329 3.7682 7.58329 3.4415V2.09984C7.58329 1.77314 7.58329 1.60979 7.64687 1.48501C7.7028 1.37525 7.79204 1.28601 7.9018 1.23008C8.02658 1.1665 8.18993 1.1665 8.51663 1.1665H10.4058C10.7133 1.16649 10.9786 1.16649 11.1971 1.18434C11.4277 1.20318 11.6571 1.24478 11.8778 1.35724C12.2071 1.52502 12.4748 1.79274 12.6426 2.12202C12.755 2.34274 12.7966 2.57212 12.8155 2.80274C12.8333 3.02124 12.8333 3.28651 12.8333 3.59401Z" fill="white"/>
</svg>
