<svg width="14" height="14" viewBox="0 0 14 14" fill="none" xmlns="http://www.w3.org/2000/svg">
<path d="M8.16663 1.75008C8.16663 1.42792 8.42779 1.16675 8.74996 1.16675H12.25C12.5721 1.16675 12.8333 1.42791 12.8333 1.75008L12.8333 5.25008C12.8333 5.57225 12.5721 5.83341 12.25 5.83341C11.9278 5.83341 11.6666 5.57225 11.6666 5.25008L11.6666 3.15838L7.99577 6.82923C7.76797 7.05703 7.39862 7.05703 7.17081 6.82923C6.94301 6.60142 6.94301 6.23207 7.17081 6.00427L10.8417 2.33341H8.74996C8.42779 2.33341 8.16663 2.07225 8.16663 1.75008Z" fill="white"/>
<path d="M6.97338 4.55178C7.20439 4.32077 7.3199 4.20527 7.36318 4.07208C7.40124 3.95492 7.40124 3.82872 7.36318 3.71156C7.3199 3.57836 7.20439 3.46286 6.97338 3.23185L6.51914 2.77761L6.49813 2.75652C6.42 2.67797 6.32162 2.57907 6.20125 2.5053C6.09687 2.44134 5.98306 2.3942 5.86402 2.36562C5.72674 2.33266 5.58725 2.33303 5.47647 2.33333L5.44669 2.33338L4.52587 2.33338C4.0563 2.33338 3.66876 2.33337 3.35306 2.35916C3.02517 2.38595 2.72376 2.44345 2.44065 2.5877C2.0016 2.81141 1.64465 3.16836 1.42094 3.60741C1.27669 3.89052 1.2192 4.19193 1.19241 4.51982C1.16661 4.83551 1.16662 5.22305 1.16663 5.69261V9.47414C1.16662 9.9437 1.16661 10.3313 1.19241 10.6469C1.2192 10.9748 1.27669 11.2762 1.42095 11.5594C1.64465 11.9984 2.0016 12.3554 2.44065 12.5791C2.72376 12.7233 3.02517 12.7808 3.35306 12.8076C3.66876 12.8334 4.0563 12.8334 4.52585 12.8334H8.3074C8.77696 12.8334 9.1645 12.8334 9.48019 12.8076C9.80808 12.7808 10.1095 12.7233 10.3926 12.5791C10.8316 12.3554 11.1886 11.9984 11.4123 11.5594C11.5566 11.2762 11.6141 10.9748 11.6408 10.6469C11.6666 10.3313 11.6666 9.94372 11.6666 9.47416V8.55332L11.6667 8.52355C11.667 8.41276 11.6673 8.27327 11.6344 8.13599C11.6058 8.01695 11.5587 7.90314 11.4947 7.79876C11.4209 7.67838 11.322 7.58001 11.2435 7.50188L11.2224 7.48087L10.7682 7.02666C10.5372 6.79565 10.4217 6.68014 10.2885 6.63687C10.1713 6.5988 10.0451 6.5988 9.92796 6.63687C9.79477 6.68014 9.67927 6.79565 9.44826 7.02666L8.82073 7.65418C8.13731 8.3376 7.02927 8.3376 6.34586 7.65418C5.66244 6.97077 5.66244 5.86273 6.34586 5.17931L6.97338 4.55178Z" fill="white"/>
</svg>
