<svg width="12" height="12" viewBox="0 0 12 12" fill="none" xmlns="http://www.w3.org/2000/svg">
<path fill-rule="evenodd" clip-rule="evenodd" d="M8.10355 3.89645C8.29881 4.09171 8.29881 4.40829 8.10355 4.60356L4.60355 8.10356C4.40829 8.29882 4.09171 8.29882 3.89644 8.10356C3.70118 7.90829 3.70118 7.59171 3.89644 7.39645L7.39644 3.89645C7.59171 3.70119 7.90829 3.70119 8.10355 3.89645Z" fill="white"/>
<path fill-rule="evenodd" clip-rule="evenodd" d="M3.17157 5.29291C3.36683 5.48817 3.36683 5.80475 3.17157 6.00001L2.46446 6.70712C1.68342 7.48817 1.68342 8.7545 2.46446 9.53555C3.24551 10.3166 4.51184 10.3166 5.29289 9.53555L6 8.82844C6.19526 8.63318 6.51184 8.63318 6.7071 8.82844C6.90237 9.0237 6.90237 9.34029 6.7071 9.53555L6 10.2427C4.82842 11.4142 2.92893 11.4142 1.75736 10.2427C0.585784 9.07108 0.585784 7.17159 1.75736 6.00001L2.46446 5.29291C2.65973 5.09764 2.97631 5.09764 3.17157 5.29291Z" fill="white"/>
<path fill-rule="evenodd" clip-rule="evenodd" d="M6 1.75737C7.17157 0.5858 9.07107 0.585799 10.2426 1.75737C11.4142 2.92895 11.4142 4.82844 10.2426 6.00001L9.53553 6.70712C9.34027 6.90238 9.02369 6.90238 8.82842 6.70712C8.63316 6.51186 8.63316 6.19527 8.82842 6.00001L9.53553 5.29291C10.3166 4.51186 10.3166 3.24553 9.53553 2.46448C8.75448 1.68343 7.48815 1.68343 6.7071 2.46448L6 3.17159C5.80474 3.36685 5.48815 3.36685 5.29289 3.17159C5.09763 2.97632 5.09763 2.65974 5.29289 2.46448L6 1.75737Z" fill="white"/>
</svg>
