<svg width="14" height="14" viewBox="0 0 14 14" fill="none" xmlns="http://www.w3.org/2000/svg">
<path fill-rule="evenodd" clip-rule="evenodd" d="M4.66663 7.00016C4.66663 6.678 4.92779 6.41683 5.24996 6.41683L12.25 6.41683C12.5721 6.41683 12.8333 6.678 12.8333 7.00016C12.8333 7.32233 12.5721 7.5835 12.25 7.5835L5.24996 7.5835C4.92779 7.5835 4.66663 7.32233 4.66663 7.00016Z" fill="white"/>
<path fill-rule="evenodd" clip-rule="evenodd" d="M4.66663 3.50016C4.66663 3.178 4.92779 2.91683 5.24996 2.91683L12.25 2.91683C12.5721 2.91683 12.8333 3.178 12.8333 3.50016C12.8333 3.82233 12.5721 4.0835 12.25 4.0835L5.24996 4.0835C4.92779 4.0835 4.66663 3.82233 4.66663 3.50016Z" fill="white"/>
<path fill-rule="evenodd" clip-rule="evenodd" d="M4.66663 10.5002C4.66663 10.178 4.92779 9.91683 5.24996 9.91683L12.25 9.91683C12.5721 9.91683 12.8333 10.178 12.8333 10.5002C12.8333 10.8223 12.5721 11.0835 12.25 11.0835L5.24996 11.0835C4.92779 11.0835 4.66663 10.8223 4.66663 10.5002Z" fill="white"/>
<path fill-rule="evenodd" clip-rule="evenodd" d="M1.16663 7.00016C1.16663 6.35583 1.68896 5.8335 2.33329 5.8335C2.97762 5.8335 3.49996 6.35583 3.49996 7.00016C3.49996 7.6445 2.97762 8.16683 2.33329 8.16683C1.68896 8.16683 1.16663 7.6445 1.16663 7.00016Z" fill="white"/>
<path fill-rule="evenodd" clip-rule="evenodd" d="M1.16663 3.50016C1.16663 2.85583 1.68896 2.3335 2.33329 2.3335C2.97762 2.3335 3.49996 2.85583 3.49996 3.50016C3.49996 4.1445 2.97762 4.66683 2.33329 4.66683C1.68896 4.66683 1.16663 4.1445 1.16663 3.50016Z" fill="white"/>
<path fill-rule="evenodd" clip-rule="evenodd" d="M1.16663 10.5002C1.16663 9.85583 1.68896 9.3335 2.33329 9.3335C2.97762 9.3335 3.49996 9.85583 3.49996 10.5002C3.49996 11.1445 2.97762 11.6668 2.33329 11.6668C1.68896 11.6668 1.16663 11.1445 1.16663 10.5002Z" fill="white"/>
</svg>
