<svg width="50" height="43" viewBox="0 0 50 43" fill="none" xmlns="http://www.w3.org/2000/svg">
<g filter="url(#filter0_d_246_2085)">
<path d="M29.2884 14.8482C25.5816 14.8482 22.5767 17.8531 22.5767 21.5598C22.5767 25.2666 25.5816 28.2715 29.2884 28.2715C32.9951 28.2715 36 25.2666 36 21.5598C36 17.8531 32.9951 14.8482 29.2884 14.8482Z" fill="url(#paint0_linear_246_2085)"/>
<path d="M18.0956 14.8479C16.2422 14.8479 14.7398 16.3504 14.7398 18.2037C14.7398 20.0571 16.2422 21.5596 18.0956 21.5596C19.949 21.5596 21.4514 20.0571 21.4514 18.2037C21.4514 16.3504 19.949 14.8479 18.0956 14.8479Z" fill="url(#paint1_linear_246_2085)"/>
</g>
<defs>
<filter id="filter0_d_246_2085" x="0.739746" y="-4" width="50.2603" height="50" filterUnits="userSpaceOnUse" color-interpolation-filters="sRGB">
<feFlood flood-opacity="0" result="BackgroundImageFix"/>
<feColorMatrix in="SourceAlpha" type="matrix" values="0 0 0 0 0 0 0 0 0 0 0 0 0 0 0 0 0 0 127 0" result="hardAlpha"/>
<feOffset/>
<feGaussianBlur stdDeviation="7"/>
<feComposite in2="hardAlpha" operator="out"/>
<feColorMatrix type="matrix" values="0 0 0 0 0.435294 0 0 0 0 0.74902 0 0 0 0 0.517647 0 0 0 0.4 0"/>
<feBlend mode="normal" in2="BackgroundImageFix" result="effect1_dropShadow_246_2085"/>
<feBlend mode="normal" in="SourceGraphic" in2="effect1_dropShadow_246_2085" result="shape"/>
</filter>
<linearGradient id="paint0_linear_246_2085" x1="21.6568" y1="25.3298" x2="37.098" y2="25.0795" gradientUnits="userSpaceOnUse">
<stop stop-color="#6F45FF"/>
<stop offset="1" stop-color="#B4A1F6"/>
</linearGradient>
<linearGradient id="paint1_linear_246_2085" x1="14.2798" y1="20.0887" x2="22.0004" y2="19.9636" gradientUnits="userSpaceOnUse">
<stop offset="0.25" stop-color="#4BF991"/>
<stop offset="1" stop-color="#A9DDB9"/>
</linearGradient>
</defs>
</svg>
