<svg width="14" height="14" viewBox="0 0 14 14" fill="none" xmlns="http://www.w3.org/2000/svg">
<path fill-rule="evenodd" clip-rule="evenodd" d="M4.52587 1.16675L4.66663 1.16675C4.98879 1.16675 5.24996 1.42792 5.24996 1.75008C5.24996 2.07225 4.98879 2.33342 4.66663 2.33342H4.54996C4.05029 2.33342 3.71062 2.33387 3.44807 2.35532C3.19232 2.37622 3.06154 2.41409 2.9703 2.46057C2.75078 2.57243 2.5723 2.7509 2.46045 2.97043C2.41397 3.06166 2.37609 3.19245 2.3552 3.44819C2.33375 3.71074 2.33329 4.05041 2.33329 4.55008V4.66675C2.33329 4.98891 2.07213 5.25008 1.74996 5.25008C1.42779 5.25008 1.16663 4.98891 1.16663 4.66675L1.16663 4.52599C1.16662 4.05642 1.16661 3.66888 1.19241 3.35318C1.2192 3.02529 1.27669 2.72388 1.42094 2.44077C1.64465 2.00173 2.0016 1.64477 2.44065 1.42107C2.72376 1.27681 3.02517 1.21932 3.35306 1.19253C3.66876 1.16673 4.0563 1.16674 4.52587 1.16675Z" fill="white"/>
<path fill-rule="evenodd" clip-rule="evenodd" d="M1.74996 8.75008C2.07213 8.75008 2.33329 9.01125 2.33329 9.33342V9.45008C2.33329 9.94975 2.33375 10.2894 2.3552 10.552C2.37609 10.8077 2.41397 10.9385 2.46045 11.0297C2.5723 11.2493 2.75078 11.4277 2.9703 11.5396C3.06154 11.5861 3.19232 11.6239 3.44807 11.6448C3.71062 11.6663 4.05029 11.6667 4.54996 11.6667H4.66663C4.98879 11.6667 5.24996 11.9279 5.24996 12.2501C5.24996 12.5722 4.98879 12.8334 4.66663 12.8334H4.52587C4.0563 12.8334 3.66876 12.8334 3.35306 12.8076C3.02517 12.7808 2.72376 12.7234 2.44065 12.5791C2.0016 12.3554 1.64465 11.9984 1.42094 11.5594C1.27669 11.2763 1.2192 10.9749 1.19241 10.647C1.16661 10.3313 1.16662 9.94374 1.16663 9.47417C1.16663 9.46617 1.16663 9.45814 1.16663 9.45008V9.33342C1.16663 9.01125 1.42779 8.75008 1.74996 8.75008Z" fill="white"/>
<path fill-rule="evenodd" clip-rule="evenodd" d="M10.5519 2.35532C10.2893 2.33387 9.94963 2.33342 9.44996 2.33342H9.33329C9.01113 2.33342 8.74996 2.07225 8.74996 1.75008C8.74996 1.42792 9.01113 1.16675 9.33329 1.16675H9.44996C9.45801 1.16675 9.46604 1.16675 9.47405 1.16675C9.94362 1.16674 10.3312 1.16673 10.6469 1.19253C10.9747 1.21932 11.2762 1.27681 11.5593 1.42107C11.9983 1.64477 12.3553 2.00173 12.579 2.44077C12.7232 2.72388 12.7807 3.02529 12.8075 3.35318C12.8333 3.66888 12.8333 4.05642 12.8333 4.52599V4.66675C12.8333 4.98891 12.5721 5.25008 12.25 5.25008C11.9278 5.25008 11.6666 4.98891 11.6666 4.66675V4.55008C11.6666 4.05041 11.6662 3.71074 11.6447 3.44819C11.6238 3.19245 11.586 3.06166 11.5395 2.97043C11.4276 2.7509 11.2491 2.57243 11.0296 2.46057C10.9384 2.41409 10.8076 2.37622 10.5519 2.35532Z" fill="white"/>
<path fill-rule="evenodd" clip-rule="evenodd" d="M12.25 8.75008C12.5721 8.75008 12.8333 9.01125 12.8333 9.33342V9.47417C12.8333 9.94374 12.8333 10.3313 12.8075 10.647C12.7807 10.9749 12.7232 11.2763 12.579 11.5594C12.3553 11.9984 11.9983 12.3554 11.5593 12.5791C11.2762 12.7234 10.9747 12.7808 10.6469 12.8076C10.3312 12.8334 9.94362 12.8334 9.47405 12.8334H9.33329C9.01113 12.8334 8.74996 12.5722 8.74996 12.2501C8.74996 11.9279 9.01113 11.6667 9.33329 11.6667H9.44996C9.94963 11.6667 10.2893 11.6663 10.5519 11.6448C10.8076 11.6239 10.9384 11.5861 11.0296 11.5396C11.2491 11.4277 11.4276 11.2493 11.5395 11.0297C11.586 10.9385 11.6238 10.8077 11.6447 10.552C11.6662 10.2894 11.6666 9.94975 11.6666 9.45008V9.33342C11.6666 9.01125 11.9278 8.75008 12.25 8.75008Z" fill="white"/>
</svg>
