<svg width="14" height="14" viewBox="0 0 14 14" fill="none" xmlns="http://www.w3.org/2000/svg">
<path fill-rule="evenodd" clip-rule="evenodd" d="M7.00008 1.16675C3.77842 1.16675 1.16675 3.77842 1.16675 7.00008C1.16675 7.77493 1.31814 8.51587 1.59349 9.19387C1.61836 9.25512 1.63267 9.29047 1.64247 9.31658L1.64545 9.32463L1.64508 9.32741C1.64216 9.34894 1.63734 9.37828 1.628 9.4343L1.2793 11.5265C1.26365 11.6202 1.24614 11.725 1.23927 11.8161C1.23178 11.9153 1.22917 12.0733 1.30076 12.2402C1.38925 12.4465 1.55367 12.6109 1.76 12.6994C1.9269 12.771 2.08483 12.7684 2.1841 12.7609C2.27516 12.754 2.38 12.7365 2.4737 12.7209L4.56586 12.3722C4.62188 12.3628 4.65123 12.358 4.67275 12.3551L4.67553 12.3547L4.68359 12.3577C4.70969 12.3675 4.74505 12.3818 4.80629 12.4067C5.48429 12.682 6.22523 12.8334 7.00008 12.8334C10.2217 12.8334 12.8334 10.2217 12.8334 7.00008C12.8334 3.77842 10.2217 1.16675 7.00008 1.16675ZM4.66675 4.95841C4.34458 4.95841 4.08341 5.21958 4.08341 5.54175C4.08341 5.86391 4.34458 6.12508 4.66675 6.12508H7.00008C7.32225 6.12508 7.58341 5.86391 7.58341 5.54175C7.58341 5.21958 7.32225 4.95841 7.00008 4.95841H4.66675ZM4.66675 7.00008C4.34458 7.00008 4.08341 7.26125 4.08341 7.58341C4.08341 7.90558 4.34458 8.16675 4.66675 8.16675H8.75008C9.07225 8.16675 9.33341 7.90558 9.33341 7.58341C9.33341 7.26125 9.07225 7.00008 8.75008 7.00008H4.66675Z" fill="white"/>
</svg>
