<svg width="14" height="15" viewBox="0 0 14 15" fill="none" xmlns="http://www.w3.org/2000/svg">
<path fill-rule="evenodd" clip-rule="evenodd" d="M0.736769 10.1249C0.736769 8.04424 2.38676 6.33325 4.45168 6.33325C6.5166 6.33325 8.16659 8.04424 8.16659 10.1249C8.16659 12.2056 6.5166 13.9166 4.45168 13.9166C4.02722 13.9166 3.61832 13.8437 3.23711 13.7091C3.17411 13.6869 3.13502 13.6731 3.10636 13.6637C3.10116 13.6619 3.0969 13.6606 3.09349 13.6595L3.09033 13.6598C3.07032 13.6621 3.04304 13.6657 2.99249 13.6726L1.24553 13.9112C1.0565 13.937 0.866785 13.8688 0.73753 13.7285C0.608275 13.5881 0.555813 13.3935 0.597048 13.2072L0.953666 11.5962C0.966057 11.5402 0.972688 11.51 0.976948 11.4878C0.977189 11.4865 0.977611 11.4843 0.977611 11.4843C0.976552 11.4806 0.975209 11.476 0.973532 11.4705C0.963926 11.4386 0.949799 11.3953 0.926834 11.325C0.803351 10.947 0.736769 10.5433 0.736769 10.1249Z" fill="white"/>
<path d="M3.00265 5.38393C3.45624 5.24283 3.93972 5.16659 4.44368 5.16659C7.19318 5.16659 9.33333 7.43614 9.33333 10.1249C9.33333 10.5995 9.26664 11.0611 9.14168 11.4994C9.45786 11.4426 9.7645 11.3578 10.0588 11.2476C10.1003 11.232 10.1417 11.2162 10.1837 11.2018C10.2175 11.2057 10.2512 11.211 10.2849 11.216L12.1592 11.4907C12.2476 11.5037 12.348 11.5184 12.4356 11.5234C12.5325 11.5289 12.6831 11.5283 12.8427 11.4597C13.042 11.374 13.2024 11.2172 13.2927 11.0199C13.365 10.862 13.3691 10.7114 13.3658 10.6144C13.3628 10.5267 13.3504 10.426 13.3394 10.3373L13.1026 8.4135C13.0964 8.36349 13.0932 8.33722 13.0914 8.31796C13.1016 8.27581 13.1209 8.23504 13.1363 8.19462C13.3573 7.61537 13.478 6.98767 13.478 6.33325C13.478 3.43016 11.1101 1.08325 8.1973 1.08325C5.60975 1.08325 3.45226 2.93524 3.00265 5.38393Z" fill="white"/>
</svg>
