<svg width="14" height="14" viewBox="0 0 14 14" fill="none" xmlns="http://www.w3.org/2000/svg">
<path fill-rule="evenodd" clip-rule="evenodd" d="M4.67032 1.63461C4.67729 1.63926 4.68429 1.64392 4.69131 1.6486L10.8447 5.75088C11.0228 5.86956 11.1879 5.97959 11.3147 6.08185C11.447 6.18856 11.603 6.33653 11.6927 6.55301C11.8114 6.83914 11.8114 7.16071 11.6927 7.44684C11.603 7.66332 11.447 7.8113 11.3147 7.91801C11.1879 8.02025 11.0228 8.13028 10.8448 8.24895L4.67034 12.3652C4.45271 12.5103 4.25701 12.6408 4.09096 12.7308C3.92478 12.8209 3.6967 12.9238 3.43048 12.9079C3.08995 12.8876 2.77539 12.7192 2.56958 12.4471C2.40869 12.2345 2.36779 11.9876 2.35054 11.7994C2.33331 11.6113 2.33333 11.3761 2.33334 11.1145L2.33335 2.91054C2.33335 2.90211 2.33335 2.8937 2.33334 2.88532C2.33333 2.62375 2.33331 2.38855 2.35054 2.20047C2.36779 2.01226 2.40869 1.76539 2.56958 1.5527C2.77539 1.28065 3.08995 1.1123 3.43048 1.09197C3.6967 1.07607 3.92478 1.17898 4.09096 1.26903C4.25701 1.35902 4.4527 1.4895 4.67032 1.63461Z" fill="white"/>
</svg>
