<svg width="14" height="15" viewBox="0 0 14 15" fill="none" xmlns="http://www.w3.org/2000/svg">
<path d="M7.58331 3.41667C7.58331 3.0945 7.32215 2.83333 6.99998 2.83333C6.67781 2.83333 6.41665 3.0945 6.41665 3.41667V6.91667H2.91665C2.59448 6.91667 2.33331 7.17783 2.33331 7.5C2.33331 7.82217 2.59448 8.08333 2.91665 8.08333H6.41665V11.5833C6.41665 11.9055 6.67781 12.1667 6.99998 12.1667C7.32215 12.1667 7.58331 11.9055 7.58331 11.5833V8.08333H11.0833C11.4055 8.08333 11.6666 7.82217 11.6666 7.5C11.6666 7.17783 11.4055 6.91667 11.0833 6.91667H7.58331V3.41667Z" fill="white"/>
</svg>
