<svg width="20" height="20" viewBox="0 0 20 20" fill="none" xmlns="http://www.w3.org/2000/svg">
<g opacity="0.5">
<g opacity="0.12">
<path d="M7.70638 6.58654C7.67167 6.56929 7.63577 6.55445 7.59891 6.54217L5.31693 5.78151C5.04103 5.68954 4.73714 5.74807 4.51512 5.93592L2.13416 7.95059C1.64672 8.36304 1.7852 9.14795 2.38436 9.36869L4.40575 10.1134C4.48642 10.1431 4.57074 10.16 4.65571 10.1639C4.82724 9.77555 5.06583 9.4092 5.37175 9.08217L7.70638 6.58654Z" fill="black"/>
<path d="M9.76073 15.2823C9.76728 15.3549 9.78334 15.4266 9.80874 15.4955L10.5656 17.5498C10.7863 18.149 11.5713 18.2874 11.9837 17.8L13.9984 15.419C14.1862 15.197 14.2447 14.8931 14.1528 14.6172L13.4668 12.5593C13.431 12.452 13.3742 12.3542 13.3008 12.2711L10.8518 14.5621C10.5222 14.8705 10.1526 15.1105 9.76073 15.2823Z" fill="black"/>
<path d="M14.5842 5.32794C14.051 4.79469 13.3837 4.21221 12.7186 3.68575C12.2783 3.33729 12.0582 3.16306 12.027 3.01611C11.9988 2.88366 12.0309 2.75922 12.1195 2.65686C12.2179 2.54328 12.4861 2.49858 13.0224 2.40918L16.1237 1.8923C17.2518 1.7043 18.2297 2.68225 18.0417 3.81029L17.5255 6.90733C17.4358 7.44568 17.391 7.71486 17.2775 7.81317C17.175 7.90189 17.0509 7.93393 16.9184 7.90587C16.7715 7.87478 16.5963 7.65383 16.2459 7.21192C15.7137 6.5407 15.1237 5.86747 14.5842 5.32794Z" fill="black"/>
</g>
<path d="M10.8333 9.16667L2.91661 17.0833M11.682 2.94872C12.697 3.62223 13.6726 4.41625 14.5842 5.32791C15.5038 6.24743 16.3036 7.232 16.9808 8.25646M7.71241 6.58012L5.31669 5.78154C5.04079 5.68957 4.73689 5.7481 4.51488 5.93596L2.13392 7.95062C1.64648 8.36307 1.78496 9.14799 2.38411 9.36873L4.64011 10.1999M9.73415 15.2938L10.5653 17.5498C10.786 18.1489 11.571 18.2874 11.9834 17.8L13.9981 15.419C14.1859 15.197 14.2445 14.8931 14.1525 14.6172L13.3539 12.2215M16.1238 1.89227L12.035 2.57373C11.5935 2.64731 11.1886 2.86432 10.8828 3.19118L5.37191 9.08213C3.94345 10.6091 3.98318 12.9938 5.46172 14.4723C6.94027 15.9508 9.32491 15.9906 10.8519 14.5621L16.7428 9.05122C17.0697 8.74544 17.2867 8.34049 17.3603 7.89899L18.0417 3.81026C18.2298 2.68222 17.2518 1.70427 16.1238 1.89227Z" stroke="white" stroke-width="1.5" stroke-linecap="round" stroke-linejoin="round"/>
</g>
</svg>
