<svg width="14" height="14" viewBox="0 0 14 14" fill="none" xmlns="http://www.w3.org/2000/svg">
<path fill-rule="evenodd" clip-rule="evenodd" d="M6.41669 1.16667C3.51719 1.16667 1.16669 3.51717 1.16669 6.41667C1.16669 9.31616 3.51719 11.6667 6.41669 11.6667C7.65628 11.6667 8.79553 11.2371 9.69367 10.5186L11.8375 12.6625C12.0653 12.8903 12.4347 12.8903 12.6625 12.6625C12.8903 12.4347 12.8903 12.0653 12.6625 11.8375L10.5186 9.69365C11.2371 8.79551 11.6667 7.65626 11.6667 6.41667C11.6667 3.51717 9.31618 1.16667 6.41669 1.16667ZM2.33335 6.41667C2.33335 4.1615 4.16152 2.33333 6.41669 2.33333C8.67185 2.33333 10.5 4.1615 10.5 6.41667C10.5 8.67183 8.67185 10.5 6.41669 10.5C4.16152 10.5 2.33335 8.67183 2.33335 6.41667Z" fill="white"/>
</svg>
