<svg width="14" height="14" viewBox="0 0 14 14" fill="none" xmlns="http://www.w3.org/2000/svg">
<path fill-rule="evenodd" clip-rule="evenodd" d="M6.70829 1.1665C3.64771 1.1665 1.16663 3.64759 1.16663 6.70817C1.16663 9.76875 3.64771 12.2498 6.70829 12.2498C8.02846 12.2498 9.24081 11.7882 10.1927 11.0176L11.8375 12.6623C12.0653 12.8901 12.4346 12.8901 12.6624 12.6623C12.8902 12.4345 12.8902 12.0652 12.6624 11.8374L11.0177 10.1926C11.7883 9.24069 12.25 8.02834 12.25 6.70817C12.25 3.64759 9.76887 1.1665 6.70829 1.1665ZM2.33329 6.70817C2.33329 4.29192 4.29205 2.33317 6.70829 2.33317C9.12454 2.33317 11.0833 4.29192 11.0833 6.70817C11.0833 9.12442 9.12454 11.0832 6.70829 11.0832C4.29205 11.0832 2.33329 9.12442 2.33329 6.70817Z" fill="white"/>
</svg>
