<svg width="14" height="14" viewBox="0 0 14 14" fill="none" xmlns="http://www.w3.org/2000/svg">
<path fill-rule="evenodd" clip-rule="evenodd" d="M5.683 12.5732L5.30236 11.7298C5.16674 11.4288 4.9377 11.1779 4.64819 11.0133C4.35852 10.8486 4.0234 10.7785 3.69082 10.8129L2.75949 10.9106C2.48229 10.9393 2.20258 10.8883 1.9542 10.7636C1.70582 10.639 1.49943 10.4461 1.35998 10.2083C1.22049 9.97057 1.15403 9.69803 1.16868 9.42378C1.18332 9.14953 1.27843 8.88537 1.44247 8.66334L1.99388 7.91687C2.19053 7.65042 2.29643 7.32943 2.29637 7C2.29643 6.67056 2.19053 6.34957 1.99388 6.08312L1.44247 5.33665C1.27843 5.11462 1.18332 4.85046 1.16868 4.57621C1.15403 4.30196 1.22049 4.02943 1.35998 3.79166C1.49929 3.55375 1.70566 3.36078 1.95407 3.23612C2.20248 3.11147 2.48227 3.0605 2.75949 3.08939L3.69371 3.18707C4.0263 3.22148 4.36141 3.15136 4.65109 2.98673C4.93952 2.82162 5.1675 2.5708 5.30236 2.2702L5.683 1.42676C5.79615 1.1757 5.98081 0.96237 6.21458 0.812659C6.44836 0.662948 6.7212 0.583283 7.00002 0.583328C7.27884 0.583283 7.55168 0.662948 7.78546 0.812659C8.01923 0.96237 8.20389 1.1757 8.31704 1.42676L8.70057 2.2702C8.83543 2.5708 9.06342 2.82162 9.35185 2.98673C9.64152 3.15136 9.97664 3.22148 10.3092 3.18707L11.2405 3.08939C11.5178 3.0605 11.7976 3.11147 12.046 3.23612C12.2944 3.36078 12.5008 3.55375 12.6401 3.79166C12.7796 4.02943 12.846 4.30196 12.8314 4.57621C12.8167 4.85046 12.7216 5.11462 12.5576 5.33665L12.0062 6.08312C11.8095 6.34957 11.7036 6.67056 11.7037 7C11.702 7.33034 11.8069 7.65265 12.0033 7.92043L12.5547 8.6669C12.7187 8.88893 12.8138 9.1531 12.8285 9.42735C12.8431 9.70159 12.7767 9.97413 12.6372 10.2119C12.4979 10.4498 12.2915 10.6428 12.0431 10.7674C11.7947 10.8921 11.5149 10.9431 11.2377 10.9142L10.3063 10.8165C9.97374 10.7821 9.63863 10.8522 9.34895 11.0168C9.06109 11.181 8.83317 11.4305 8.69768 11.7298L8.31704 12.5732C8.20389 12.8243 8.01923 13.0376 7.78546 13.1873C7.55168 13.337 7.27884 13.4167 7.00002 13.4167C6.7212 13.4167 6.44836 13.337 6.21458 13.1873C5.98081 13.0376 5.79615 12.8243 5.683 12.5732ZM8.75002 7C8.75002 7.96649 7.96652 8.75 7.00002 8.75C6.03352 8.75 5.25002 7.96649 5.25002 7C5.25002 6.0335 6.03352 5.25 7.00002 5.25C7.96652 5.25 8.75002 6.0335 8.75002 7Z" fill="white"/>
</svg>
