<svg width="12" height="12" viewBox="0 0 12 12" fill="none" xmlns="http://www.w3.org/2000/svg">
<path fill-rule="evenodd" clip-rule="evenodd" d="M7.12888 10.7771L7.45513 10.0541C7.57138 9.7961 7.7677 9.58106 8.01585 9.43994C8.26415 9.29883 8.55138 9.23872 8.83646 9.26822L9.63474 9.35194C9.87234 9.37655 10.1121 9.33279 10.325 9.22597C10.5379 9.11914 10.7148 8.95381 10.8343 8.75C10.9539 8.5462 11.0108 8.3126 10.9983 8.07753C10.9857 7.84246 10.9042 7.61603 10.7636 7.42572L10.291 6.78589C10.1224 6.55751 10.0317 6.28238 10.0317 6C10.0317 5.71762 10.1224 5.44249 10.291 5.21411L10.7636 4.57428C10.9042 4.38397 10.9857 4.15754 10.9983 3.92247C11.0108 3.6874 10.9539 3.4538 10.8343 3.25C10.7149 3.04608 10.538 2.88067 10.3251 2.77382C10.1122 2.66698 9.87236 2.62329 9.63474 2.64806L8.83398 2.73178C8.5489 2.76127 8.26167 2.70117 8.01337 2.56006C7.76614 2.41854 7.57073 2.20355 7.45513 1.94589L7.12888 1.22294C7.03189 1.00774 6.87361 0.824893 6.67323 0.696569C6.47285 0.568245 6.23899 0.499962 6 0.5C5.76101 0.499962 5.52715 0.568245 5.32677 0.696569C5.12639 0.824893 4.96811 1.00774 4.87112 1.22294L4.54238 1.94589C4.42679 2.20355 4.23138 2.41854 3.98415 2.56006C3.73585 2.70117 3.44862 2.76127 3.16354 2.73178L2.36526 2.64806C2.12764 2.62329 1.88783 2.66698 1.6749 2.77382C1.46198 2.88067 1.28509 3.04608 1.16568 3.25C1.04611 3.4538 0.989154 3.6874 1.00171 3.92247C1.01426 4.15754 1.09578 4.38397 1.23639 4.57428L1.70903 5.21411C1.87758 5.44249 1.96835 5.71762 1.9683 6C1.96973 6.28315 1.8798 6.55942 1.71151 6.78894L1.23887 7.42878C1.09826 7.61909 1.01674 7.84552 1.00419 8.08059C0.991634 8.31565 1.0486 8.54926 1.16816 8.75305C1.28757 8.95698 1.46446 9.12239 1.67738 9.22923C1.89031 9.33608 2.13012 9.37976 2.36774 9.355L3.16602 9.27128C3.4511 9.24178 3.73833 9.30189 3.98663 9.443C4.23337 9.58372 4.42873 9.79759 4.54487 10.0541L4.87112 10.7771C4.96811 10.9923 5.12639 11.1751 5.32677 11.3034C5.52715 11.4318 5.76101 11.5 6 11.5C6.23899 11.5 6.47285 11.4318 6.67323 11.3034C6.87361 11.1751 7.03189 10.9923 7.12888 10.7771ZM4.5 6C4.5 6.82843 5.17157 7.5 6 7.5C6.82843 7.5 7.5 6.82843 7.5 6C7.5 5.17157 6.82843 4.5 6 4.5C5.17157 4.5 4.5 5.17157 4.5 6Z" fill="white"/>
</svg>
