<svg width="14" height="15" viewBox="0 0 14 15" fill="none" xmlns="http://www.w3.org/2000/svg">
<path fill-rule="evenodd" clip-rule="evenodd" d="M6.03003 2.33148C6.20101 2.1217 6.45944 2.00284 6.72999 2.00955C6.96718 2.01543 7.1463 2.1343 7.2365 2.1985C7.33266 2.26694 7.44212 2.36079 7.55066 2.45386C7.55599 2.45843 7.56131 2.46299 7.56662 2.46755L12.5193 6.71271C12.5802 6.7649 12.651 6.82551 12.708 6.88359C12.7726 6.94933 12.8628 7.05376 12.9169 7.20432C12.9856 7.39554 12.9856 7.60472 12.9169 7.79594C12.8628 7.9465 12.7726 8.05093 12.708 8.11667C12.651 8.17475 12.5802 8.23536 12.5193 8.28755L7.55065 12.5464C7.44211 12.6395 7.33266 12.7333 7.2365 12.8018C7.1463 12.866 6.96718 12.9848 6.72999 12.9907C6.45944 12.9974 6.20101 12.8786 6.03003 12.6688C5.88014 12.4849 5.85381 12.2715 5.84385 12.1612C5.83324 12.0437 5.83326 11.8995 5.83329 11.7565L5.83329 9.94802C5.28368 10.043 4.7483 10.2137 4.24271 10.4562C3.45444 10.8343 2.75722 11.3784 2.1988 12.0511C2.0418 12.2402 1.7831 12.3107 1.5519 12.2272C1.3207 12.1437 1.16663 11.9243 1.16663 11.6785V11.3215C1.16742 9.79277 1.73102 8.31751 2.7499 7.17778C3.57381 6.25613 4.64878 5.60587 5.83329 5.3001V3.26477C5.83329 3.25777 5.83329 3.25076 5.83329 3.24375C5.83326 3.10076 5.83324 2.95658 5.84385 2.83903C5.85381 2.72876 5.88014 2.5154 6.03003 2.33148Z" fill="white"/>
</svg>
