<svg width="21" height="20" viewBox="0 0 21 20" fill="none" xmlns="http://www.w3.org/2000/svg">
<g opacity="0.5">
<path d="M9.00016 6.66666V5.83333M9.00016 10.4167V9.58333M9.00016 14.1667V13.3333M5.00016 3.33333H16.3335C17.2669 3.33333 17.7336 3.33333 18.0901 3.51498C18.4038 3.67477 18.6587 3.92974 18.8185 4.24334C19.0002 4.59986 19.0002 5.06657 19.0002 5.99999V7.08333C17.3893 7.08333 16.0835 8.38916 16.0835 9.99999C16.0835 11.6108 17.3893 12.9167 19.0002 12.9167V14C19.0002 14.9334 19.0002 15.4001 18.8185 15.7566C18.6587 16.0702 18.4038 16.3252 18.0901 16.485C17.7336 16.6667 17.2669 16.6667 16.3335 16.6667H5.00016C4.06674 16.6667 3.60003 16.6667 3.24351 16.485C2.92991 16.3252 2.67494 16.0702 2.51515 15.7566C2.3335 15.4001 2.3335 14.9334 2.3335 14V12.9167C3.94433 12.9167 5.25016 11.6108 5.25016 9.99999C5.25016 8.38916 3.94433 7.08333 2.3335 7.08333V5.99999C2.3335 5.06657 2.3335 4.59986 2.51515 4.24334C2.67494 3.92974 2.92991 3.67477 3.24351 3.51498C3.60003 3.33333 4.06674 3.33333 5.00016 3.33333Z" stroke="white" stroke-width="1.5" stroke-linecap="round" stroke-linejoin="round"/>
</g>
</svg>
