<svg width="14" height="14" viewBox="0 0 14 14" fill="none" xmlns="http://www.w3.org/2000/svg">
<path fill-rule="evenodd" clip-rule="evenodd" d="M7.00004 0.583496C3.45621 0.583496 0.583374 3.45634 0.583374 7.00016C0.583374 10.544 3.45621 13.4168 7.00004 13.4168C10.5439 13.4168 13.4167 10.544 13.4167 7.00016C13.4167 3.45634 10.5439 0.583496 7.00004 0.583496ZM4.25423 6.58768L6.58756 4.25435C6.81537 4.02654 7.18471 4.02654 7.41252 4.25435L9.74585 6.58768C9.97366 6.81549 9.97366 7.18484 9.74585 7.41264C9.51805 7.64045 9.1487 7.64045 8.9209 7.41264L7.58337 6.07512V9.3335C7.58337 9.65566 7.32221 9.91683 7.00004 9.91683C6.67788 9.91683 6.41671 9.65566 6.41671 9.3335V6.07512L5.07919 7.41264C4.85138 7.64045 4.48203 7.64045 4.25423 7.41264C4.02642 7.18484 4.02642 6.81549 4.25423 6.58768Z" fill="white"/>
</svg>
