<svg width="14" height="14" viewBox="0 0 14 14" fill="none" xmlns="http://www.w3.org/2000/svg">
<path fill-rule="evenodd" clip-rule="evenodd" d="M12.0062 10.6769C10.8553 9.15374 9.04241 8.16675 7.00009 8.16675C4.95776 8.16675 3.1449 9.15374 1.994 10.6769C1.9888 10.6838 1.98358 10.6907 1.97833 10.6976C1.87937 10.8285 1.77327 10.9688 1.69744 11.1042C1.60567 11.268 1.53764 11.4576 1.54186 11.6881C1.54525 11.8734 1.60139 12.0468 1.66957 12.1838C1.73775 12.3208 1.8423 12.4701 1.9881 12.5846C2.18254 12.7371 2.39423 12.7912 2.58229 12.8137C2.74728 12.8335 2.94281 12.8335 3.13939 12.8334C3.14825 12.8334 3.15711 12.8334 3.16597 12.8334H10.8342C10.8431 12.8334 10.8519 12.8334 10.8608 12.8334C11.0574 12.8335 11.2529 12.8335 11.4179 12.8137C11.6059 12.7912 11.8176 12.7371 12.0121 12.5846C12.1579 12.4701 12.2624 12.3208 12.3306 12.1838C12.3988 12.0468 12.4549 11.8734 12.4583 11.6881C12.4625 11.4576 12.3945 11.268 12.3027 11.1042C12.2269 10.9688 12.1208 10.8285 12.0218 10.6976C12.0166 10.6907 12.0114 10.6838 12.0062 10.6769Z" fill="white"/>
<path fill-rule="evenodd" clip-rule="evenodd" d="M10.2084 4.37508C10.2084 2.60317 8.772 1.16675 7.00009 1.16675C5.22817 1.16675 3.79175 2.60317 3.79175 4.37508C3.79175 6.14699 5.22817 7.58341 7.00009 7.58341C8.772 7.58341 10.2084 6.14699 10.2084 4.37508Z" fill="white"/>
</svg>
