<svg width="18" height="18" viewBox="0 0 18 18" fill="none" xmlns="http://www.w3.org/2000/svg">
<g opacity="0.5">
<path fill-rule="evenodd" clip-rule="evenodd" d="M11.3284 2.26705C11.5127 1.89611 11.9628 1.74485 12.3338 1.92918C13.6902 2.60327 14.625 4.00428 14.625 5.625C14.625 7.24572 13.6902 8.64673 12.3338 9.32082C11.9628 9.50515 11.5127 9.35389 11.3284 8.98295C11.144 8.61202 11.2953 8.16188 11.6662 7.97754C12.5324 7.5471 13.125 6.65457 13.125 5.625C13.125 4.59543 12.5324 3.7029 11.6662 3.27246C11.2953 3.08812 11.144 2.63798 11.3284 2.26705Z" fill="white"/>
<path fill-rule="evenodd" clip-rule="evenodd" d="M12.8167 12.2656C12.9875 11.8882 13.4318 11.7207 13.8092 11.8915C15.0676 12.4609 16.1806 13.3795 17.0898 14.5366C17.3457 14.8623 17.2891 15.3338 16.9634 15.5897C16.6377 15.8456 16.1662 15.7891 15.9103 15.4634C15.1282 14.468 14.1995 13.7146 13.1908 13.2581C12.8134 13.0873 12.6459 12.643 12.8167 12.2656Z" fill="white"/>
<path fill-rule="evenodd" clip-rule="evenodd" d="M3.00001 5.625C3.00001 3.34683 4.84683 1.5 7.12501 1.5C9.40318 1.5 11.25 3.34683 11.25 5.625C11.25 7.90317 9.40318 9.75 7.12501 9.75C4.84683 9.75 3.00001 7.90317 3.00001 5.625Z" fill="white"/>
<path fill-rule="evenodd" clip-rule="evenodd" d="M0.910261 14.5366C2.4791 12.5399 4.66285 11.25 7.12501 11.25C9.58716 11.25 11.7709 12.5399 13.3398 14.5366C13.5171 14.7624 13.5501 15.0696 13.4245 15.3279C13.299 15.5861 13.0371 15.75 12.75 15.75H1.50001C1.21289 15.75 0.950973 15.5861 0.825462 15.3279C0.699952 15.0696 0.732879 14.7624 0.910261 14.5366Z" fill="white"/>
</g>
</svg>
