<svg width="234" height="234" viewBox="0 0 234 234" fill="none" xmlns="http://www.w3.org/2000/svg">
<path d="M9.6401 0.304443H0.304443V9.6401H9.6401V0.304443Z" fill="black"/>
<path d="M18.9757 0.304443H9.6401V9.6401H18.9757V0.304443Z" fill="black"/>
<path d="M28.3114 0.304443H18.9757V9.6401H28.3114V0.304443Z" fill="black"/>
<path d="M37.6471 0.304443H28.3114V9.6401H37.6471V0.304443Z" fill="black"/>
<path d="M46.9827 0.304443H37.6471V9.6401H46.9827V0.304443Z" fill="black"/>
<path d="M56.3184 0.304443H46.9827V9.6401H56.3184V0.304443Z" fill="black"/>
<path d="M65.654 0.304443H56.3184V9.6401H65.654V0.304443Z" fill="black"/>
<path d="M84.3253 0.304443H74.9897V9.6401H84.3253V0.304443Z" fill="black"/>
<path d="M93.661 0.304443H84.3253V9.6401H93.661V0.304443Z" fill="black"/>
<path d="M140.339 0.304443H131.004V9.6401H140.339V0.304443Z" fill="black"/>
<path d="M159.011 0.304443H149.675V9.6401H159.011V0.304443Z" fill="black"/>
<path d="M177.682 0.304443H168.346V9.6401H177.682V0.304443Z" fill="black"/>
<path d="M187.017 0.304443H177.682V9.6401H187.017V0.304443Z" fill="black"/>
<path d="M196.353 0.304443H187.017V9.6401H196.353V0.304443Z" fill="black"/>
<path d="M205.689 0.304443H196.353V9.6401H205.689V0.304443Z" fill="black"/>
<path d="M215.024 0.304443H205.689V9.6401H215.024V0.304443Z" fill="black"/>
<path d="M224.36 0.304443H215.024V9.6401H224.36V0.304443Z" fill="black"/>
<path d="M233.696 0.304443H224.36V9.6401H233.696V0.304443Z" fill="black"/>
<path d="M9.6401 9.6401H0.304443V18.9757H9.6401V9.6401Z" fill="black"/>
<path d="M65.654 9.6401H56.3184L56.3184 18.9757H65.654V9.6401Z" fill="black"/>
<path d="M102.997 9.6401H93.661V18.9757H102.997V9.6401Z" fill="black"/>
<path d="M131.004 9.6401H121.668V18.9757H131.004V9.6401Z" fill="black"/>
<path d="M140.339 9.6401H131.004V18.9757H140.339V9.6401Z" fill="black"/>
<path d="M159.011 9.6401H149.675V18.9757H159.011V9.6401Z" fill="black"/>
<path d="M177.682 9.6401H168.346V18.9757H177.682V9.6401Z" fill="black"/>
<path d="M233.696 9.6401H224.36V18.9757H233.696V9.6401Z" fill="black"/>
<path d="M9.6401 18.9757H0.304443V28.3114H9.6401V18.9757Z" fill="black"/>
<path d="M28.3114 18.9757H18.9757V28.3114H28.3114V18.9757Z" fill="black"/>
<path d="M37.6471 18.9757H28.3114V28.3114H37.6471V18.9757Z" fill="black"/>
<path d="M46.9827 18.9757H37.6471V28.3114H46.9827V18.9757Z" fill="black"/>
<path d="M65.654 18.9757H56.3184V28.3114H65.654V18.9757Z" fill="black"/>
<path d="M84.3253 18.9757H74.9897V28.3114H84.3253V18.9757Z" fill="black"/>
<path d="M93.661 18.9757H84.3253V28.3114H93.661V18.9757Z" fill="black"/>
<path d="M102.997 18.9757H93.661V28.3114H102.997V18.9757Z" fill="black"/>
<path d="M112.332 18.9757H102.997V28.3114H112.332V18.9757Z" fill="black"/>
<path d="M131.004 18.9757H121.668V28.3114H131.004V18.9757Z" fill="black"/>
<path d="M177.682 18.9757H168.346V28.3114H177.682V18.9757Z" fill="black"/>
<path d="M196.353 18.9757H187.017V28.3114H196.353V18.9757Z" fill="black"/>
<path d="M205.689 18.9757H196.353V28.3114H205.689V18.9757Z" fill="black"/>
<path d="M215.024 18.9757H205.689V28.3114H215.024V18.9757Z" fill="black"/>
<path d="M233.696 18.9757H224.36V28.3114H233.696V18.9757Z" fill="black"/>
<path d="M9.6401 28.3114H0.304443V37.6471H9.6401V28.3114Z" fill="black"/>
<path d="M28.3114 28.3114H18.9757V37.6471H28.3114V28.3114Z" fill="black"/>
<path d="M37.6471 28.3114H28.3114V37.6471H37.6471V28.3114Z" fill="black"/>
<path d="M46.9827 28.3114H37.6471V37.6471H46.9827V28.3114Z" fill="black"/>
<path d="M65.654 28.3114H56.3184V37.6471H65.654V28.3114Z" fill="black"/>
<path d="M102.997 28.3114H93.661V37.6471H102.997V28.3114Z" fill="black"/>
<path d="M112.332 28.3114H102.997V37.6471H112.332V28.3114Z" fill="black"/>
<path d="M121.668 28.3114H112.332V37.6471H121.668V28.3114Z" fill="black"/>
<path d="M131.004 28.3114H121.668V37.6471H131.004V28.3114Z" fill="black"/>
<path d="M177.682 28.3114H168.346V37.6471H177.682V28.3114Z" fill="black"/>
<path d="M196.353 28.3114H187.017V37.6471H196.353V28.3114Z" fill="black"/>
<path d="M205.689 28.3114H196.353V37.6471H205.689V28.3114Z" fill="black"/>
<path d="M215.024 28.3114H205.689V37.6471H215.024V28.3114Z" fill="black"/>
<path d="M233.696 28.3114H224.36V37.6471H233.696V28.3114Z" fill="black"/>
<path d="M9.6401 37.6471H0.304443V46.9827H9.6401V37.6471Z" fill="black"/>
<path d="M28.3114 37.6471H18.9757V46.9827H28.3114V37.6471Z" fill="black"/>
<path d="M37.6471 37.6471H28.3114V46.9827H37.6471V37.6471Z" fill="black"/>
<path d="M46.9827 37.6471H37.6471V46.9827H46.9827V37.6471Z" fill="black"/>
<path d="M65.654 37.6471H56.3184V46.9827H65.654V37.6471Z" fill="black"/>
<path d="M121.668 37.6471H112.332V46.9827H121.668V37.6471Z" fill="black"/>
<path d="M131.004 37.6471H121.668V46.9827H131.004V37.6471Z" fill="black"/>
<path d="M140.339 37.6471H131.004V46.9827H140.339V37.6471Z" fill="black"/>
<path d="M159.011 37.6471H149.675V46.9827H159.011V37.6471Z" fill="black"/>
<path d="M177.682 37.6471H168.346V46.9827H177.682V37.6471Z" fill="black"/>
<path d="M196.353 37.6471H187.017V46.9827H196.353V37.6471Z" fill="black"/>
<path d="M205.689 37.6471H196.353V46.9827H205.689V37.6471Z" fill="black"/>
<path d="M215.024 37.6471H205.689V46.9827H215.024V37.6471Z" fill="black"/>
<path d="M233.696 37.6471H224.36V46.9827H233.696V37.6471Z" fill="black"/>
<path d="M9.6401 46.9827H0.304443V56.3184H9.6401V46.9827Z" fill="black"/>
<path d="M65.654 46.9827H56.3184V56.3184H65.654V46.9827Z" fill="black"/>
<path d="M93.661 46.9827H84.3253V56.3184H93.661V46.9827Z" fill="black"/>
<path d="M102.997 46.9827H93.661V56.3184H102.997V46.9827Z" fill="black"/>
<path d="M112.332 46.9827H102.997V56.3184H112.332V46.9827Z" fill="black"/>
<path d="M121.668 46.9827H112.332V56.3184H121.668V46.9827Z" fill="black"/>
<path d="M131.004 46.9827H121.668V56.3184H131.004V46.9827Z" fill="black"/>
<path d="M140.339 46.9827H131.004V56.3184H140.339V46.9827Z" fill="black"/>
<path d="M159.011 46.9827H149.675V56.3184H159.011V46.9827Z" fill="black"/>
<path d="M177.682 46.9827H168.346V56.3184H177.682V46.9827Z" fill="black"/>
<path d="M233.696 46.9827H224.36V56.3184H233.696V46.9827Z" fill="black"/>
<path d="M9.6401 56.3184H0.304443V65.654H9.6401V56.3184Z" fill="black"/>
<path d="M18.9757 56.3184L9.6401 56.3184V65.654H18.9757V56.3184Z" fill="black"/>
<path d="M28.3114 56.3184H18.9757V65.654H28.3114V56.3184Z" fill="black"/>
<path d="M37.6471 56.3184H28.3114V65.654H37.6471V56.3184Z" fill="black"/>
<path d="M46.9827 56.3184H37.6471V65.654H46.9827V56.3184Z" fill="black"/>
<path d="M56.3184 56.3184L46.9827 56.3184V65.654H56.3184L56.3184 56.3184Z" fill="black"/>
<path d="M65.654 56.3184H56.3184L56.3184 65.654H65.654V56.3184Z" fill="black"/>
<path d="M84.3253 56.3184L74.9897 56.3184V65.654H84.3253V56.3184Z" fill="black"/>
<path d="M102.997 56.3184H93.661V65.654H102.997V56.3184Z" fill="black"/>
<path d="M121.668 56.3184H112.332V65.654H121.668V56.3184Z" fill="black"/>
<path d="M140.339 56.3184H131.004V65.654H140.339V56.3184Z" fill="black"/>
<path d="M159.011 56.3184H149.675V65.654H159.011V56.3184Z" fill="black"/>
<path d="M177.682 56.3184H168.346V65.654H177.682V56.3184Z" fill="black"/>
<path d="M187.017 56.3184L177.682 56.3184V65.654H187.017V56.3184Z" fill="black"/>
<path d="M196.353 56.3184H187.017V65.654H196.353V56.3184Z" fill="black"/>
<path d="M205.689 56.3184H196.353V65.654H205.689V56.3184Z" fill="black"/>
<path d="M215.024 56.3184H205.689V65.654H215.024V56.3184Z" fill="black"/>
<path d="M224.36 56.3184L215.024 56.3184V65.654H224.36V56.3184Z" fill="black"/>
<path d="M233.696 56.3184H224.36V65.654H233.696V56.3184Z" fill="black"/>
<path d="M84.3253 65.654H74.9897V74.9897H84.3253V65.654Z" fill="black"/>
<path d="M112.332 65.654H102.997V74.9897H112.332V65.654Z" fill="black"/>
<path d="M140.339 65.654H131.004V74.9897H140.339V65.654Z" fill="black"/>
<path d="M159.011 65.654H149.675V74.9897H159.011V65.654Z" fill="black"/>
<path d="M9.6401 74.9897H0.304443V84.3253H9.6401V74.9897Z" fill="black"/>
<path d="M28.3114 74.9897H18.9757V84.3253H28.3114V74.9897Z" fill="black"/>
<path d="M56.3184 74.9897H46.9827V84.3253H56.3184V74.9897Z" fill="black"/>
<path d="M65.654 74.9897H56.3184V84.3253H65.654V74.9897Z" fill="black"/>
<path d="M93.661 74.9897H84.3253V84.3253H93.661V74.9897Z" fill="black"/>
<path d="M102.997 74.9897H93.661V84.3253H102.997V74.9897Z" fill="black"/>
<path d="M112.332 74.9897H102.997V84.3253H112.332V74.9897Z" fill="black"/>
<path d="M131.004 74.9897H121.668V84.3253H131.004V74.9897Z" fill="black"/>
<path d="M149.675 74.9897H140.339L140.339 84.3253H149.675V74.9897Z" fill="black"/>
<path d="M168.346 74.9897H159.011V84.3253H168.346V74.9897Z" fill="black"/>
<path d="M177.682 74.9897H168.346V84.3253H177.682V74.9897Z" fill="black"/>
<path d="M215.024 74.9897H205.689V84.3253H215.024V74.9897Z" fill="black"/>
<path d="M233.696 74.9897H224.36V84.3253H233.696V74.9897Z" fill="black"/>
<path d="M18.9757 84.3253H9.6401V93.661H18.9757V84.3253Z" fill="black"/>
<path d="M37.6471 84.3253H28.3114V93.661H37.6471V84.3253Z" fill="black"/>
<path d="M84.3253 84.3253H74.9897V93.661H84.3253V84.3253Z" fill="black"/>
<path d="M140.339 84.3253H131.004V93.661H140.339L140.339 84.3253Z" fill="black"/>
<path d="M159.011 84.3253H149.675V93.661H159.011V84.3253Z" fill="black"/>
<path d="M177.682 84.3253H168.346V93.661H177.682V84.3253Z" fill="black"/>
<path d="M196.353 84.3253H187.017V93.661H196.353V84.3253Z" fill="black"/>
<path d="M205.689 84.3253H196.353V93.661H205.689V84.3253Z" fill="black"/>
<path d="M215.024 84.3253H205.689V93.661H215.024V84.3253Z" fill="black"/>
<path d="M224.36 84.3253H215.024V93.661H224.36V84.3253Z" fill="black"/>
<path d="M233.696 84.3253H224.36V93.661H233.696V84.3253Z" fill="black"/>
<path d="M9.6401 93.661H0.304443V102.997H9.6401V93.661Z" fill="black"/>
<path d="M18.9757 93.661H9.6401V102.997H18.9757V93.661Z" fill="black"/>
<path d="M65.654 93.661H56.3184V102.997H65.654V93.661Z" fill="black"/>
<path d="M84.3253 93.661H74.9897V102.997H84.3253V93.661Z" fill="black"/>
<path d="M121.668 93.661H112.332V102.997H121.668V93.661Z" fill="black"/>
<path d="M131.004 93.661H121.668V102.997H131.004V93.661Z" fill="black"/>
<path d="M140.339 93.661H131.004V102.997H140.339V93.661Z" fill="black"/>
<path d="M168.346 93.661H159.011V102.997H168.346V93.661Z" fill="black"/>
<path d="M177.682 93.661H168.346V102.997H177.682V93.661Z" fill="black"/>
<path d="M187.017 93.661H177.682V102.997H187.017V93.661Z" fill="black"/>
<path d="M224.36 93.661H215.024V102.997H224.36V93.661Z" fill="black"/>
<path d="M28.3114 102.997H18.9757V112.332H28.3114V102.997Z" fill="black"/>
<path d="M74.9897 102.997H65.654V112.332H74.9897V102.997Z" fill="black"/>
<path d="M84.3253 102.997H74.9897V112.332H84.3253V102.997Z" fill="black"/>
<path d="M112.332 102.997H102.997V112.332H112.332V102.997Z" fill="black"/>
<path d="M149.675 102.997H140.339L140.339 112.332H149.675V102.997Z" fill="black"/>
<path d="M177.682 102.997H168.346V112.332H177.682V102.997Z" fill="black"/>
<path d="M196.353 102.997H187.017V112.332H196.353V102.997Z" fill="black"/>
<path d="M224.36 102.997H215.024V112.332H224.36V102.997Z" fill="black"/>
<path d="M28.3114 112.332H18.9757V121.668H28.3114V112.332Z" fill="black"/>
<path d="M37.6471 112.332H28.3114V121.668H37.6471V112.332Z" fill="black"/>
<path d="M46.9827 112.332H37.6471V121.668H46.9827V112.332Z" fill="black"/>
<path d="M56.3184 112.332H46.9827V121.668H56.3184V112.332Z" fill="black"/>
<path d="M65.654 112.332H56.3184V121.668H65.654V112.332Z" fill="black"/>
<path d="M112.332 112.332H102.997V121.668H112.332V112.332Z" fill="black"/>
<path d="M121.668 112.332H112.332V121.668H121.668V112.332Z" fill="black"/>
<path d="M131.004 112.332H121.668V121.668H131.004V112.332Z" fill="black"/>
<path d="M140.339 112.332H131.004V121.668H140.339L140.339 112.332Z" fill="black"/>
<path d="M149.675 112.332H140.339L140.339 121.668H149.675V112.332Z" fill="black"/>
<path d="M196.353 112.332H187.017V121.668H196.353V112.332Z" fill="black"/>
<path d="M205.689 112.332H196.353V121.668H205.689V112.332Z" fill="black"/>
<path d="M215.024 112.332H205.689V121.668H215.024V112.332Z" fill="black"/>
<path d="M224.36 112.332H215.024V121.668H224.36V112.332Z" fill="black"/>
<path d="M18.9757 121.668H9.6401V131.004H18.9757V121.668Z" fill="black"/>
<path d="M46.9827 121.668H37.6471V131.004H46.9827V121.668Z" fill="black"/>
<path d="M84.3253 121.668H74.9897V131.004H84.3253V121.668Z" fill="black"/>
<path d="M93.661 121.668H84.3253V131.004H93.661V121.668Z" fill="black"/>
<path d="M112.332 121.668H102.997V131.004H112.332V121.668Z" fill="black"/>
<path d="M121.668 121.668H112.332V131.004H121.668V121.668Z" fill="black"/>
<path d="M140.339 121.668H131.004V131.004H140.339V121.668Z" fill="black"/>
<path d="M159.011 121.668H149.675V131.004H159.011V121.668Z" fill="black"/>
<path d="M168.346 121.668H159.011V131.004H168.346V121.668Z" fill="black"/>
<path d="M187.017 121.668H177.682V131.004H187.017V121.668Z" fill="black"/>
<path d="M196.353 121.668H187.017V131.004H196.353V121.668Z" fill="black"/>
<path d="M215.024 121.668H205.689V131.004H215.024V121.668Z" fill="black"/>
<path d="M233.696 121.668H224.36V131.004H233.696V121.668Z" fill="black"/>
<path d="M9.6401 131.004H0.304443V140.339H9.6401V131.004Z" fill="black"/>
<path d="M18.9757 131.004H9.6401V140.339H18.9757V131.004Z" fill="black"/>
<path d="M28.3114 131.004H18.9757V140.339H28.3114V131.004Z" fill="black"/>
<path d="M37.6471 131.004H28.3114V140.339H37.6471V131.004Z" fill="black"/>
<path d="M46.9827 131.004H37.6471V140.339H46.9827V131.004Z" fill="black"/>
<path d="M65.654 131.004H56.3184V140.339H65.654V131.004Z" fill="black"/>
<path d="M74.9897 131.004H65.654V140.339H74.9897V131.004Z" fill="black"/>
<path d="M84.3253 131.004H74.9897V140.339H84.3253V131.004Z" fill="black"/>
<path d="M93.661 131.004H84.3253V140.339H93.661V131.004Z" fill="black"/>
<path d="M140.339 131.004H131.004V140.339H140.339V131.004Z" fill="black"/>
<path d="M149.675 131.004H140.339V140.339H149.675V131.004Z" fill="black"/>
<path d="M159.011 131.004H149.675V140.339H159.011V131.004Z" fill="black"/>
<path d="M168.346 131.004H159.011V140.339H168.346V131.004Z" fill="black"/>
<path d="M215.024 131.004H205.689V140.339H215.024V131.004Z" fill="black"/>
<path d="M224.36 131.004H215.024V140.339H224.36V131.004Z" fill="black"/>
<path d="M233.696 131.004H224.36V140.339H233.696V131.004Z" fill="black"/>
<path d="M9.6401 140.339H0.304443V149.675H9.6401V140.339Z" fill="black"/>
<path d="M84.3253 140.339H74.9897V149.675H84.3253V140.339Z" fill="black"/>
<path d="M93.661 140.339H84.3253V149.675H93.661V140.339Z" fill="black"/>
<path d="M102.997 140.339L93.661 140.339V149.675H102.997V140.339Z" fill="black"/>
<path d="M121.668 140.339H112.332V149.675H121.668V140.339Z" fill="black"/>
<path d="M131.004 140.339L121.668 140.339V149.675H131.004V140.339Z" fill="black"/>
<path d="M140.339 140.339H131.004V149.675H140.339V140.339Z" fill="black"/>
<path d="M149.675 140.339H140.339V149.675H149.675V140.339Z" fill="black"/>
<path d="M159.011 140.339H149.675V149.675H159.011V140.339Z" fill="black"/>
<path d="M168.346 140.339H159.011V149.675H168.346V140.339Z" fill="black"/>
<path d="M187.017 140.339H177.682V149.675H187.017V140.339Z" fill="black"/>
<path d="M196.353 140.339H187.017V149.675H196.353V140.339Z" fill="black"/>
<path d="M205.689 140.339L196.353 140.339V149.675H205.689V140.339Z" fill="black"/>
<path d="M9.6401 149.675H0.304443V159.011H9.6401V149.675Z" fill="black"/>
<path d="M28.3114 149.675H18.9757V159.011H28.3114V149.675Z" fill="black"/>
<path d="M37.6471 149.675H28.3114V159.011H37.6471V149.675Z" fill="black"/>
<path d="M56.3184 149.675H46.9827V159.011H56.3184V149.675Z" fill="black"/>
<path d="M65.654 149.675H56.3184V159.011H65.654V149.675Z" fill="black"/>
<path d="M74.9897 149.675H65.654V159.011H74.9897V149.675Z" fill="black"/>
<path d="M84.3253 149.675H74.9897V159.011H84.3253V149.675Z" fill="black"/>
<path d="M93.661 149.675H84.3253V159.011H93.661V149.675Z" fill="black"/>
<path d="M102.997 149.675H93.661V159.011H102.997V149.675Z" fill="black"/>
<path d="M112.332 149.675H102.997V159.011H112.332V149.675Z" fill="black"/>
<path d="M131.004 149.675H121.668V159.011H131.004V149.675Z" fill="black"/>
<path d="M159.011 149.675H149.675V159.011H159.011V149.675Z" fill="black"/>
<path d="M168.346 149.675H159.011V159.011H168.346V149.675Z" fill="black"/>
<path d="M177.682 149.675H168.346V159.011H177.682V149.675Z" fill="black"/>
<path d="M187.017 149.675H177.682V159.011H187.017V149.675Z" fill="black"/>
<path d="M196.353 149.675H187.017V159.011H196.353V149.675Z" fill="black"/>
<path d="M215.024 149.675H205.689V159.011H215.024V149.675Z" fill="black"/>
<path d="M224.36 149.675H215.024V159.011H224.36V149.675Z" fill="black"/>
<path d="M233.696 149.675H224.36V159.011H233.696V149.675Z" fill="black"/>
<path d="M112.332 159.011H102.997V168.346H112.332V159.011Z" fill="black"/>
<path d="M121.668 159.011H112.332V168.346H121.668V159.011Z" fill="black"/>
<path d="M140.339 159.011H131.004V168.346H140.339V159.011Z" fill="black"/>
<path d="M159.011 159.011H149.675V168.346H159.011V159.011Z" fill="black"/>
<path d="M196.353 159.011H187.017V168.346H196.353V159.011Z" fill="black"/>
<path d="M205.689 159.011H196.353V168.346H205.689V159.011Z" fill="black"/>
<path d="M224.36 159.011H215.024V168.346H224.36V159.011Z" fill="black"/>
<path d="M233.696 159.011H224.36V168.346H233.696V159.011Z" fill="black"/>
<path d="M9.6401 168.346H0.304443V177.682H9.6401V168.346Z" fill="black"/>
<path d="M18.9757 168.346H9.6401V177.682H18.9757V168.346Z" fill="black"/>
<path d="M28.3114 168.346H18.9757V177.682H28.3114V168.346Z" fill="black"/>
<path d="M37.6471 168.346H28.3114V177.682H37.6471V168.346Z" fill="black"/>
<path d="M46.9827 168.346H37.6471V177.682H46.9827V168.346Z" fill="black"/>
<path d="M56.3184 168.346H46.9827V177.682H56.3184V168.346Z" fill="black"/>
<path d="M65.654 168.346H56.3184V177.682H65.654V168.346Z" fill="black"/>
<path d="M93.661 168.346H84.3253V177.682H93.661V168.346Z" fill="black"/>
<path d="M121.668 168.346H112.332V177.682H121.668V168.346Z" fill="black"/>
<path d="M131.004 168.346H121.668V177.682H131.004V168.346Z" fill="black"/>
<path d="M140.339 168.346H131.004V177.682H140.339V168.346Z" fill="black"/>
<path d="M159.011 168.346H149.675V177.682H159.011V168.346Z" fill="black"/>
<path d="M177.682 168.346H168.346V177.682H177.682V168.346Z" fill="black"/>
<path d="M196.353 168.346H187.017V177.682H196.353V168.346Z" fill="black"/>
<path d="M233.696 168.346H224.36V177.682H233.696V168.346Z" fill="black"/>
<path d="M9.6401 177.682H0.304443V187.017H9.6401V177.682Z" fill="black"/>
<path d="M65.654 177.682H56.3184L56.3184 187.017H65.654V177.682Z" fill="black"/>
<path d="M84.3253 177.682H74.9897V187.017H84.3253V177.682Z" fill="black"/>
<path d="M93.661 177.682H84.3253V187.017H93.661V177.682Z" fill="black"/>
<path d="M112.332 177.682H102.997V187.017H112.332V177.682Z" fill="black"/>
<path d="M121.668 177.682H112.332V187.017H121.668V177.682Z" fill="black"/>
<path d="M131.004 177.682H121.668V187.017H131.004V177.682Z" fill="black"/>
<path d="M159.011 177.682H149.675V187.017H159.011V177.682Z" fill="black"/>
<path d="M196.353 177.682H187.017V187.017H196.353V177.682Z" fill="black"/>
<path d="M9.6401 187.017H0.304443V196.353H9.6401V187.017Z" fill="black"/>
<path d="M28.3114 187.017H18.9757V196.353H28.3114V187.017Z" fill="black"/>
<path d="M37.6471 187.017H28.3114V196.353H37.6471V187.017Z" fill="black"/>
<path d="M46.9827 187.017H37.6471V196.353H46.9827V187.017Z" fill="black"/>
<path d="M65.654 187.017H56.3184V196.353H65.654V187.017Z" fill="black"/>
<path d="M112.332 187.017H102.997V196.353H112.332V187.017Z" fill="black"/>
<path d="M159.011 187.017H149.675V196.353H159.011V187.017Z" fill="black"/>
<path d="M168.346 187.017H159.011V196.353H168.346V187.017Z" fill="black"/>
<path d="M177.682 187.017H168.346V196.353H177.682V187.017Z" fill="black"/>
<path d="M187.017 187.017H177.682V196.353H187.017V187.017Z" fill="black"/>
<path d="M196.353 187.017H187.017V196.353H196.353V187.017Z" fill="black"/>
<path d="M205.689 187.017H196.353V196.353H205.689V187.017Z" fill="black"/>
<path d="M215.024 187.017H205.689V196.353H215.024V187.017Z" fill="black"/>
<path d="M224.36 187.017H215.024V196.353H224.36V187.017Z" fill="black"/>
<path d="M9.6401 196.353H0.304443V205.689H9.6401V196.353Z" fill="black"/>
<path d="M28.3114 196.353H18.9757V205.689H28.3114V196.353Z" fill="black"/>
<path d="M37.6471 196.353H28.3114V205.689H37.6471V196.353Z" fill="black"/>
<path d="M46.9827 196.353H37.6471V205.689H46.9827V196.353Z" fill="black"/>
<path d="M65.654 196.353H56.3184V205.689H65.654V196.353Z" fill="black"/>
<path d="M112.332 196.353H102.997V205.689H112.332V196.353Z" fill="black"/>
<path d="M149.675 196.353H140.339V205.689H149.675V196.353Z" fill="black"/>
<path d="M168.346 196.353H159.011V205.689H168.346V196.353Z" fill="black"/>
<path d="M177.682 196.353H168.346V205.689H177.682V196.353Z" fill="black"/>
<path d="M187.017 196.353H177.682V205.689H187.017V196.353Z" fill="black"/>
<path d="M233.696 196.353H224.36V205.689H233.696V196.353Z" fill="black"/>
<path d="M9.6401 205.689H0.304443V215.024H9.6401V205.689Z" fill="black"/>
<path d="M28.3114 205.689H18.9757V215.024H28.3114V205.689Z" fill="black"/>
<path d="M37.6471 205.689H28.3114V215.024H37.6471V205.689Z" fill="black"/>
<path d="M46.9827 205.689H37.6471V215.024H46.9827V205.689Z" fill="black"/>
<path d="M65.654 205.689H56.3184V215.024H65.654V205.689Z" fill="black"/>
<path d="M84.3253 205.689H74.9897V215.024H84.3253V205.689Z" fill="black"/>
<path d="M102.997 205.689H93.661V215.024H102.997V205.689Z" fill="black"/>
<path d="M177.682 205.689H168.346V215.024H177.682V205.689Z" fill="black"/>
<path d="M205.689 205.689H196.353V215.024H205.689V205.689Z" fill="black"/>
<path d="M215.024 205.689H205.689V215.024H215.024V205.689Z" fill="black"/>
<path d="M9.6401 215.024H0.304443V224.36H9.6401V215.024Z" fill="black"/>
<path d="M65.654 215.024H56.3184V224.36H65.654V215.024Z" fill="black"/>
<path d="M112.332 215.024H102.997V224.36H112.332V215.024Z" fill="black"/>
<path d="M121.668 215.024H112.332V224.36H121.668V215.024Z" fill="black"/>
<path d="M149.675 215.024H140.339V224.36H149.675V215.024Z" fill="black"/>
<path d="M168.346 215.024H159.011V224.36H168.346V215.024Z" fill="black"/>
<path d="M187.017 215.024H177.682V224.36H187.017V215.024Z" fill="black"/>
<path d="M196.353 215.024H187.017V224.36H196.353V215.024Z" fill="black"/>
<path d="M205.689 215.024H196.353V224.36H205.689V215.024Z" fill="black"/>
<path d="M215.024 215.024H205.689V224.36H215.024V215.024Z" fill="black"/>
<path d="M9.6401 224.36H0.304443V233.696H9.6401V224.36Z" fill="black"/>
<path d="M18.9757 224.36H9.6401V233.696H18.9757V224.36Z" fill="black"/>
<path d="M28.3114 224.36H18.9757V233.696H28.3114V224.36Z" fill="black"/>
<path d="M37.6471 224.36H28.3114V233.696H37.6471V224.36Z" fill="black"/>
<path d="M46.9827 224.36H37.6471V233.696H46.9827V224.36Z" fill="black"/>
<path d="M56.3184 224.36H46.9827V233.696H56.3184L56.3184 224.36Z" fill="black"/>
<path d="M65.654 224.36H56.3184L56.3184 233.696H65.654V224.36Z" fill="black"/>
<path d="M84.3253 224.36H74.9897V233.696H84.3253V224.36Z" fill="black"/>
<path d="M93.661 224.36H84.3253V233.696H93.661V224.36Z" fill="black"/>
<path d="M102.997 224.36H93.661V233.696H102.997V224.36Z" fill="black"/>
<path d="M112.332 224.36H102.997V233.696H112.332V224.36Z" fill="black"/>
<path d="M121.668 224.36H112.332V233.696H121.668V224.36Z" fill="black"/>
<path d="M131.004 224.36H121.668V233.696H131.004V224.36Z" fill="black"/>
<path d="M140.339 224.36H131.004V233.696H140.339L140.339 224.36Z" fill="black"/>
<path d="M159.011 224.36H149.675V233.696H159.011V224.36Z" fill="black"/>
<path d="M168.346 224.36H159.011V233.696H168.346V224.36Z" fill="black"/>
<path d="M177.682 224.36H168.346V233.696H177.682V224.36Z" fill="black"/>
<path d="M196.353 224.36H187.017V233.696H196.353V224.36Z" fill="black"/>
<path d="M215.024 224.36H205.689V233.696H215.024V224.36Z" fill="black"/>
<path d="M233.696 224.36H224.36V233.696H233.696V224.36Z" fill="black"/>
</svg>
